<svg width="773" height="220" viewBox="0 0 773 220" fill="none" xmlns="http://www.w3.org/2000/svg">
<path d="M206.4 179H178.5V215H109.8V179H0.900001V134L90 4.99999H162.6L83.4 124.1H111.9V92H178.5V124.1H206.4V179ZM438.488 219.8C419.888 219.8 403.388 215.5 388.988 206.9C374.788 198.1 363.588 185.5 355.388 169.1C347.388 152.5 343.388 132.8 343.388 110C343.388 87.2 347.388 67.6 355.388 51.2C363.588 34.6 374.788 22 388.988 13.4C403.388 4.59999 419.888 0.199994 438.488 0.199994C457.088 0.199994 473.488 4.59999 487.688 13.4C502.088 22 513.288 34.6 521.288 51.2C529.488 67.6 533.588 87.2 533.588 110C533.588 132.8 529.488 152.5 521.288 169.1C513.288 185.5 502.088 198.1 487.688 206.9C473.488 215.5 457.088 219.8 438.488 219.8ZM438.488 163.1C454.488 163.1 462.488 145.4 462.488 110C462.488 74.6 454.488 56.9 438.488 56.9C422.488 56.9 414.488 74.6 414.488 110C414.488 145.4 422.488 163.1 438.488 163.1ZM772.802 179H744.902V215H676.202V179H567.302V134L656.402 4.99999H729.002L649.802 124.1H678.302V92H744.902V124.1H772.802V179Z" fill="white"/>
<path d="M271.174 125.3C259.774 125.3 250.274 121.7 242.674 114.5C235.274 107.1 231.574 97.7 231.574 86.3C231.574 74.9 235.274 65.7 242.674 58.7C250.274 51.5 259.774 47.9 271.174 47.9C282.574 47.9 291.974 51.5 299.374 58.7C306.974 65.7 310.774 74.9 310.774 86.3C310.774 97.7 306.974 107.1 299.374 114.5C291.974 121.7 282.574 125.3 271.174 125.3ZM271.174 218C259.774 218 250.274 214.4 242.674 207.2C235.274 199.8 231.574 190.4 231.574 179C231.574 167.6 235.274 158.4 242.674 151.4C250.274 144.2 259.774 140.6 271.174 140.6C282.574 140.6 291.974 144.2 299.374 151.4C306.974 158.4 310.774 167.6 310.774 179C310.774 190.4 306.974 199.8 299.374 207.2C291.974 214.4 282.574 218 271.174 218Z" fill="#EE0E33"/>
</svg>
