<svg width="259" height="66" viewBox="0 0 259 66" fill="none" xmlns="http://www.w3.org/2000/svg">
<path d="M162.855 38.1327V64.4052H155.574L145.59 52.47V64.4052H136.958V38.1327H144.239L154.223 50.0679V38.1327H162.855Z" fill="#EE0E33"/>
<path d="M170.689 53.1831C169.262 53.1831 168.074 52.7327 167.123 51.832C166.197 50.9062 165.734 49.7302 165.734 48.3039C165.734 46.8777 166.197 45.7267 167.123 44.851C168.074 43.9502 169.262 43.4998 170.689 43.4998C172.115 43.4998 173.291 43.9502 174.217 44.851C175.167 45.7267 175.643 46.8777 175.643 48.3039C175.643 49.7302 175.167 50.9062 174.217 51.832C173.291 52.7327 172.115 53.1831 170.689 53.1831ZM170.689 64.7805C169.262 64.7805 168.074 64.3301 167.123 63.4294C166.197 62.5036 165.734 61.3276 165.734 59.9014C165.734 58.4751 166.197 57.3241 167.123 56.4484C168.074 55.5476 169.262 55.0972 170.689 55.0972C172.115 55.0972 173.291 55.5476 174.217 56.4484C175.167 57.3241 175.643 58.4751 175.643 59.9014C175.643 61.3276 175.167 62.5036 174.217 63.4294C173.291 64.3301 172.115 64.7805 170.689 64.7805Z" fill="#EE0E33"/>
<path d="M192.296 65.0057C189.469 65.0057 186.929 64.4177 184.677 63.2417C182.425 62.0657 180.661 60.4393 179.385 58.3625C178.109 56.2607 177.471 53.8962 177.471 51.269C177.471 48.6417 178.109 46.2897 179.385 44.2129C180.661 42.1111 182.425 40.4722 184.677 39.2962C186.929 38.1202 189.469 37.5322 192.296 37.5322C195.124 37.5322 197.663 38.1202 199.915 39.2962C202.167 40.4722 203.931 42.1111 205.207 44.2129C206.483 46.2897 207.121 48.6417 207.121 51.269C207.121 53.8962 206.483 56.2607 205.207 58.3625C203.931 60.4393 202.167 62.0657 199.915 63.2417C197.663 64.4177 195.124 65.0057 192.296 65.0057ZM192.296 57.8371C193.397 57.8371 194.385 57.5744 195.261 57.0489C196.162 56.4984 196.875 55.7353 197.401 54.7595C197.926 53.7586 198.189 52.5951 198.189 51.269C198.189 49.9428 197.926 48.7919 197.401 47.816C196.875 46.8152 196.162 46.052 195.261 45.5266C194.385 44.9761 193.397 44.7009 192.296 44.7009C191.195 44.7009 190.194 44.9761 189.294 45.5266C188.418 46.052 187.717 46.8152 187.192 47.816C186.666 48.7919 186.404 49.9428 186.404 51.269C186.404 52.5951 186.666 53.7586 187.192 54.7595C187.717 55.7353 188.418 56.4984 189.294 57.0489C190.194 57.5744 191.195 57.8371 192.296 57.8371Z" fill="#EE0E33"/>
<path d="M252.132 38.1327L243.725 64.4052H234.229L229.988 50.3682L225.522 64.4052H216.026L207.619 38.1327H216.74L221.318 53.0705L226.16 38.1327H234.305L238.883 53.2582L243.725 38.1327H252.132Z" fill="#EE0E33"/>
<path d="M14.6375 27.4735C11.8601 27.4735 9.358 26.898 7.1311 25.747C4.90419 24.571 3.1527 22.9446 1.8766 20.8678C0.625535 18.7661 0 16.389 0 13.7367C0 11.0845 0.625535 8.71996 1.8766 6.64318C3.1527 4.54138 4.90419 2.91499 7.1311 1.76401C9.358 0.588003 11.8601 0 14.6375 0C17.1897 0 19.4666 0.450385 21.4684 1.35116C23.4701 2.25193 25.1215 3.55304 26.4226 5.25449L20.8303 10.2463C19.2039 8.19451 17.2898 7.16863 15.0879 7.16863C13.2363 7.16863 11.7475 7.76914 10.6216 8.97017C9.49562 10.1462 8.93264 11.735 8.93264 13.7367C8.93264 15.7385 9.49562 17.3398 10.6216 18.5409C11.7475 19.7169 13.2363 20.3049 15.0879 20.3049C17.2898 20.3049 19.2039 19.279 20.8303 17.2272L26.4226 22.219C25.1215 23.9205 23.4701 25.2216 21.4684 26.1223C19.4666 27.0231 17.1897 27.4735 14.6375 27.4735Z" fill="white"/>
<path d="M42.2045 27.4735C39.3771 27.4735 36.8375 26.8855 34.5855 25.7095C32.3336 24.5335 30.5696 22.9071 29.2935 20.8303C28.0174 18.7285 27.3794 16.364 27.3794 13.7367C27.3794 11.1095 28.0174 8.75749 29.2935 6.68071C30.5696 4.57891 32.3336 2.94001 34.5855 1.76401C36.8375 0.588003 39.3771 0 42.2045 0C45.032 0 47.5716 0.588003 49.8236 1.76401C52.0755 2.94001 53.8395 4.57891 55.1156 6.68071C56.3917 8.75749 57.0297 11.1095 57.0297 13.7367C57.0297 16.364 56.3917 18.7285 55.1156 20.8303C53.8395 22.9071 52.0755 24.5335 49.8236 25.7095C47.5716 26.8855 45.032 27.4735 42.2045 27.4735ZM42.2045 20.3049C43.3055 20.3049 44.2938 20.0421 45.1696 19.5167C46.0704 18.9662 46.7835 18.2031 47.3089 17.2272C47.8344 16.2264 48.0971 15.0629 48.0971 13.7367C48.0971 12.4106 47.8344 11.2596 47.3089 10.2838C46.7835 9.28294 46.0704 8.51979 45.1696 7.99434C44.2938 7.44387 43.3055 7.16863 42.2045 7.16863C41.1036 7.16863 40.1028 7.44387 39.202 7.99434C38.3262 8.51979 37.6256 9.28294 37.1002 10.2838C36.5747 11.2596 36.312 12.4106 36.312 13.7367C36.312 15.0629 36.5747 16.2264 37.1002 17.2272C37.6256 18.2031 38.3262 18.9662 39.202 19.5167C40.1028 20.0421 41.1036 20.3049 42.2045 20.3049Z" fill="white"/>
<path d="M86.1417 0.600513V26.873H78.8605L68.877 14.9378V26.873H60.2446V0.600513H67.5258L77.5093 12.5357V0.600513H86.1417Z" fill="white"/>
<path d="M96.1144 7.46889H88.4203V0.600513H112.666V7.46889H104.972V26.873H96.1144V7.46889Z" fill="white"/>
<path d="M131.55 22.2941H121.566L119.802 26.873H110.795L122.28 0.600513H130.987L142.472 26.873H133.314L131.55 22.2941ZM129.11 15.9136L126.558 9.30796L124.006 15.9136H129.11Z" fill="white"/>
<path d="M157.106 27.4735C154.328 27.4735 151.826 26.898 149.599 25.747C147.372 24.571 145.621 22.9446 144.345 20.8678C143.094 18.7661 142.468 16.389 142.468 13.7367C142.468 11.0845 143.094 8.71996 144.345 6.64318C145.621 4.54138 147.372 2.91499 149.599 1.76401C151.826 0.588003 154.328 0 157.106 0C159.658 0 161.935 0.450385 163.936 1.35116C165.938 2.25193 167.59 3.55304 168.891 5.25449L163.298 10.2463C161.672 8.19451 159.758 7.16863 157.556 7.16863C155.704 7.16863 154.216 7.76914 153.09 8.97017C151.964 10.1462 151.401 11.735 151.401 13.7367C151.401 15.7385 151.964 17.3398 153.09 18.5409C154.216 19.7169 155.704 20.3049 157.556 20.3049C159.758 20.3049 161.672 19.279 163.298 17.2272L168.891 22.219C167.59 23.9205 165.938 25.2216 163.936 26.1223C161.935 27.0231 159.658 27.4735 157.106 27.4735Z" fill="white"/>
<path d="M176.97 7.46889H169.276V0.600513H193.521V7.46889H185.827V26.873H176.97V7.46889Z" fill="white"/>
<path d="M219.648 27.4735C215.619 27.4735 212.479 26.3851 210.227 24.2082C207.975 22.0313 206.849 18.9787 206.849 15.0504V0.600513H215.707V14.7876C215.707 16.7143 216.044 18.1155 216.72 18.9912C217.421 19.867 218.421 20.3049 219.723 20.3049C221.024 20.3049 222.012 19.867 222.688 18.9912C223.388 18.1155 223.739 16.7143 223.739 14.7876V0.600513H232.446V15.0504C232.446 18.9787 231.32 22.0313 229.068 24.2082C226.816 26.3851 223.676 27.4735 219.648 27.4735Z" fill="white"/>
<path d="M246.302 27.4735C244.125 27.4735 241.998 27.2358 239.922 26.7604C237.87 26.26 236.181 25.5969 234.855 24.7712L237.707 18.3157C238.958 19.0413 240.359 19.6293 241.911 20.0797C243.462 20.505 244.951 20.7177 246.377 20.7177C247.603 20.7177 248.479 20.6051 249.004 20.3799C249.53 20.1297 249.793 19.7669 249.793 19.2915C249.793 18.741 249.442 18.3282 248.742 18.0529C248.066 17.7777 246.94 17.4774 245.364 17.1522C243.337 16.7268 241.648 16.2764 240.297 15.801C238.946 15.3006 237.77 14.4999 236.769 13.399C235.768 12.273 235.268 10.7592 235.268 8.85758C235.268 7.20616 235.73 5.70488 236.656 4.35372C237.582 3.00257 238.958 1.93916 240.785 1.16349C242.636 0.387831 244.876 0 247.503 0C249.305 0 251.069 0.200171 252.795 0.600513C254.547 0.975833 256.085 1.53881 257.412 2.28946L254.747 8.70745C252.17 7.40633 249.73 6.75578 247.428 6.75578C245.151 6.75578 244.013 7.30625 244.013 8.40719C244.013 8.93264 244.35 9.33298 245.026 9.60822C245.702 9.85843 246.815 10.1337 248.366 10.4339C250.368 10.8092 252.057 11.2471 253.433 11.7475C254.809 12.223 255.998 13.0111 256.999 14.1121C258.025 15.213 258.538 16.7143 258.538 18.6159C258.538 20.2673 258.075 21.7686 257.149 23.1198C256.223 24.4459 254.834 25.5093 252.983 26.31C251.156 27.0857 248.929 27.4735 246.302 27.4735Z" fill="white"/>
<path d="M12.3105 57.7994H9.90847V64.4051H1.0509V38.1326H13.6992C16.1263 38.1326 18.2406 38.533 20.0421 39.3336C21.8437 40.1343 23.2324 41.2853 24.2082 42.7866C25.184 44.2879 25.672 46.0394 25.672 48.0411C25.672 49.9177 25.2466 51.5566 24.3959 52.9578C23.5451 54.359 22.3191 55.4724 20.7177 56.2981L26.2349 64.4051H16.7768L12.3105 57.7994ZM16.7393 48.0411C16.7393 47.0652 16.4391 46.3146 15.8385 45.7892C15.238 45.2387 14.3373 44.9635 13.1362 44.9635H9.90847V51.1187H13.1362C14.3373 51.1187 15.238 50.856 15.8385 50.3305C16.4391 49.7801 16.7393 49.0169 16.7393 48.0411Z" fill="white"/>
<path d="M29.0167 38.1326H37.8743V64.4051H29.0167V38.1326Z" fill="white"/>
<path d="M59.5156 50.5557H67.2097V61.6652C65.6584 62.7412 63.8568 63.5669 61.8051 64.1424C59.7533 64.7178 57.7391 65.0056 55.7624 65.0056C52.96 65.0056 50.4454 64.4301 48.2185 63.2791C45.9916 62.1031 44.2401 60.4767 42.964 58.3999C41.7129 56.2981 41.0874 53.9211 41.0874 51.2688C41.0874 48.6166 41.7129 46.2521 42.964 44.1753C44.2401 42.0735 46.0041 40.4471 48.256 39.2961C50.533 38.1201 53.0977 37.5321 55.9501 37.5321C58.5273 37.5321 60.8293 37.97 62.856 38.8457C64.9078 39.6964 66.6092 40.9475 67.9604 42.5989L62.293 47.5907C60.6416 45.6641 58.6774 44.7007 56.4005 44.7007C54.4488 44.7007 52.8975 45.2887 51.7465 46.4647C50.5955 47.6407 50.02 49.2421 50.02 51.2688C50.02 53.2455 50.583 54.8344 51.709 56.0354C52.86 57.2365 54.3863 57.837 56.2879 57.837C57.4138 57.837 58.4898 57.6243 59.5156 57.1989V50.5557Z" fill="white"/>
<path d="M96.8809 38.1326V64.4051H88.0233V54.7218H79.8413V64.4051H70.9837V38.1326H79.8413V47.4406H88.0233V38.1326H96.8809Z" fill="white"/>
<path d="M106.854 45.001H99.1595V38.1326H123.405V45.001H115.711V64.4051H106.854V45.001Z" fill="white"/>
</svg>
