<svg id="its-now" width="272" height="88" viewBox="0 0 272 88" fill="none" xmlns="http://www.w3.org/2000/svg">
<path d="M1.38405 2.57875H13.0496V37.2928H1.38405V2.57875Z" fill="transparent"/>
<path d="M26.1787 11.654H16.0455V2.57875H47.9774V11.654H37.8442V37.2928H26.1787V11.654Z" fill="transparent"/>
<path d="M56.6686 0C58.5799 0 60.1452 0.578567 61.3645 1.7357C62.5838 2.89283 63.1934 4.43017 63.1934 6.3477C63.1934 7.20729 63.0781 8.06687 62.8474 8.92646C62.6167 9.78604 62.0895 11.092 61.2656 12.8442L57.8055 20.2333H50.8853L53.3568 11.8524C52.3352 11.3564 51.5444 10.6456 50.9841 9.71992C50.4239 8.76115 50.1438 7.63708 50.1438 6.3477C50.1438 4.43017 50.7535 2.89283 51.9727 1.7357C53.192 0.578567 54.7573 0 56.6686 0Z" fill="transparent"/>
<path d="M80.3692 38.0862C77.5023 38.0862 74.7012 37.7721 71.9661 37.144C69.2639 36.4828 67.0396 35.6067 65.293 34.5156L69.0497 25.9859C70.6974 26.9447 72.5428 27.7216 74.5859 28.3167C76.629 28.8787 78.5897 29.1598 80.4681 29.1598C82.0828 29.1598 83.2362 29.011 83.9282 28.7134C84.6202 28.3828 84.9662 27.9035 84.9662 27.2753C84.9662 26.548 84.5049 26.0024 83.5822 25.6388C82.6924 25.2751 81.2095 24.8784 79.1335 24.4486C76.4642 23.8865 74.2399 23.2914 72.4604 22.6633C70.6809 22.0021 69.1321 20.9441 67.814 19.4894C66.4958 18.0017 65.8368 16.0015 65.8368 13.4889C65.8368 11.3068 66.4464 9.32319 67.6657 7.5379C68.8849 5.75261 70.6974 4.34752 73.103 3.32262C75.5415 2.29774 78.4909 1.78529 81.951 1.78529C84.3236 1.78529 86.6469 2.04978 88.9206 2.57875C91.2274 3.07467 93.254 3.81854 95.0006 4.81037L91.491 13.2905C88.0968 11.5713 84.8838 10.7118 81.8521 10.7118C78.8534 10.7118 77.354 11.4391 77.354 12.8938C77.354 13.5881 77.7989 14.117 78.6886 14.4807C79.5783 14.8113 81.0448 15.175 83.0879 15.5717C85.7242 16.0676 87.9485 16.6462 89.761 17.3074C91.5734 17.9356 93.1387 18.977 94.4568 20.4317C95.8079 21.8864 96.4835 23.87 96.4835 26.3826C96.4835 28.5647 95.8738 30.5483 94.6545 32.3336C93.4353 34.0858 91.6064 35.4909 89.1678 36.5489C86.7622 37.5738 83.8293 38.0862 80.3692 38.0862Z" fill="transparent"/>
<path d="M19.5249 87.6777C15.8012 87.6777 12.4564 86.9007 9.4906 85.3469C6.52479 83.793 4.20157 81.644 2.52094 78.9C0.840313 76.1228 0 72.9986 0 69.5272C0 66.0558 0.840313 62.9481 2.52094 60.204C4.20157 57.4269 6.52479 55.2614 9.4906 53.7075C12.4564 52.1537 15.8012 51.3767 19.5249 51.3767C23.2487 51.3767 26.5934 52.1537 29.5593 53.7075C32.5251 55.2614 34.8483 57.4269 36.5289 60.204C38.2095 62.9481 39.0498 66.0558 39.0498 69.5272C39.0498 72.9986 38.2095 76.1228 36.5289 78.9C34.8483 81.644 32.5251 83.793 29.5593 85.3469C26.5934 86.9007 23.2487 87.6777 19.5249 87.6777ZM19.5249 78.2057C20.9749 78.2057 22.2765 77.8586 23.4299 77.1643C24.6162 76.4369 25.5554 75.4286 26.2474 74.1392C26.9395 72.8168 27.2855 71.2794 27.2855 69.5272C27.2855 67.775 26.9395 66.2542 26.2474 64.9648C25.5554 63.6423 24.6162 62.634 23.4299 61.9397C22.2765 61.2124 20.9749 60.8487 19.5249 60.8487C18.075 60.8487 16.7568 61.2124 15.5705 61.9397C14.4171 62.634 13.4944 63.6423 12.8024 64.9648C12.1104 66.2542 11.7644 67.775 11.7644 69.5272C11.7644 71.2794 12.1104 72.8168 12.8024 74.1392C13.4944 75.4286 14.4171 76.4369 15.5705 77.1643C16.7568 77.8586 18.075 78.2057 19.5249 78.2057Z" fill="transparent"/>
<path d="M58.1129 78.1561H54.9494V86.8842H43.2838V52.1702H59.9418C63.1383 52.1702 65.9229 52.6992 68.2955 53.7571C70.6682 54.8151 72.4971 56.3359 73.7823 58.3195C75.0675 60.3032 75.7101 62.6174 75.7101 65.2623C75.7101 67.7419 75.1498 69.9074 74.0294 71.7588C72.909 73.6102 71.2943 75.0814 69.1853 76.1724L76.4515 86.8842H63.9951L58.1129 78.1561ZM63.9457 65.2623C63.9457 63.9729 63.5502 62.9811 62.7593 62.2868C61.9685 61.5595 60.7821 61.1958 59.2004 61.1958H54.9494V69.3288H59.2004C60.7821 69.3288 61.9685 68.9817 62.7593 68.2874C63.5502 67.5601 63.9457 66.5517 63.9457 65.2623Z" fill="transparent"/>
<path d="M129.041 52.1702V86.8842H119.452L106.303 71.1141V86.8842H94.9345V52.1702H104.524L117.672 67.9403V52.1702H129.041Z" fill="transparent"/>
<path d="M163.43 78.0569V86.8842H134.662V52.1702H162.788V60.9975H146.13V65.064H160.761V73.4945H146.13V78.0569H163.43Z" fill="transparent"/>
<path d="M204.412 52.1702L189.781 86.8842H178.313L163.682 52.1702H176.237L184.492 72.4531L192.945 52.1702H204.412Z" fill="transparent"/>
<path d="M234.342 78.0569V86.8842H205.573V52.1702H233.699V60.9975H217.041V65.064H231.672V73.4945H217.041V78.0569H234.342Z" fill="transparent"/>
<path d="M253.661 78.1561H250.498V86.8842H238.832V52.1702H255.49C258.687 52.1702 261.471 52.6992 263.844 53.7571C266.217 54.8151 268.046 56.3359 269.331 58.3195C270.616 60.3032 271.259 62.6174 271.259 65.2623C271.259 67.7419 270.698 69.9074 269.578 71.7588C268.458 73.6102 266.843 75.0814 264.734 76.1724L272 86.8842H259.544L253.661 78.1561ZM259.494 65.2623C259.494 63.9729 259.099 62.9811 258.308 62.2868C257.517 61.5595 256.331 61.1958 254.749 61.1958H250.498V69.3288H254.749C256.331 69.3288 257.517 68.9817 258.308 68.2874C259.099 67.5601 259.494 66.5517 259.494 65.2623Z" fill="transparent"/>
<path class="path-ac" d="M148.881 2.57862V37.2926H139.292L126.143 21.5225V37.2926H114.774V2.57862H124.364L137.512 18.3487V2.57862H148.881Z" fill="transparent"/>
<path class="path-ac" d="M159.198 22.4648C157.32 22.4648 155.754 21.8697 154.502 20.6795C153.283 19.4562 152.673 17.9024 152.673 16.0179C152.673 14.1334 153.283 12.6126 154.502 11.4555C155.754 10.2653 157.32 9.67019 159.198 9.67019C161.076 9.67019 162.625 10.2653 163.844 11.4555C165.097 12.6126 165.723 14.1334 165.723 16.0179C165.723 17.9024 165.097 19.4562 163.844 20.6795C162.625 21.8697 161.076 22.4648 159.198 22.4648ZM159.198 37.7885C157.32 37.7885 155.754 37.1934 154.502 36.0032C153.283 34.78 152.673 33.2261 152.673 31.3417C152.673 29.4572 153.283 27.9364 154.502 26.7792C155.754 25.589 157.32 24.9939 159.198 24.9939C161.076 24.9939 162.625 25.589 163.844 26.7792C165.097 27.9364 165.723 29.4572 165.723 31.3417C165.723 33.2261 165.097 34.78 163.844 36.0032C162.625 37.1934 161.076 37.7885 159.198 37.7885Z" fill="transparent"/>
<path class="path-ac" d="M187.655 38.0861C183.932 38.0861 180.587 37.3092 177.621 35.7553C174.655 34.2014 172.332 32.0525 170.651 29.3084C168.971 26.5313 168.13 23.407 168.13 19.9356C168.13 16.4642 168.971 13.3565 170.651 10.6124C172.332 7.83531 174.655 5.66982 177.621 4.11595C180.587 2.56209 183.932 1.78516 187.655 1.78516C191.379 1.78516 194.724 2.56209 197.69 4.11595C200.656 5.66982 202.979 7.83531 204.659 10.6124C206.34 13.3565 207.18 16.4642 207.18 19.9356C207.18 23.407 206.34 26.5313 204.659 29.3084C202.979 32.0525 200.656 34.2014 197.69 35.7553C194.724 37.3092 191.379 38.0861 187.655 38.0861ZM187.655 28.6141C189.105 28.6141 190.407 28.267 191.56 27.5727C192.747 26.8454 193.686 25.837 194.378 24.5476C195.07 23.2252 195.416 21.6879 195.416 19.9356C195.416 18.1834 195.07 16.6626 194.378 15.3732C193.686 14.0508 192.747 13.0424 191.56 12.3481C190.407 11.6208 189.105 11.2571 187.655 11.2571C186.205 11.2571 184.887 11.6208 183.701 12.3481C182.548 13.0424 181.625 14.0508 180.933 15.3732C180.241 16.6626 179.895 18.1834 179.895 19.9356C179.895 21.6879 180.241 23.2252 180.933 24.5476C181.625 25.837 182.548 26.8454 183.701 27.5727C184.887 28.267 186.205 28.6141 187.655 28.6141Z" fill="transparent"/>
<path class="path-ac" d="M266.46 2.57862L255.388 37.2926H242.882L237.296 18.7454L231.414 37.2926H218.908L207.836 2.57862H219.848L225.878 22.316L232.255 2.57862H242.981L249.011 22.564L255.388 2.57862H266.46Z" fill="transparent"/>
</svg>
