<svg xmlns="http://www.w3.org/2000/svg" width="101" height="44" fill="none" viewBox="0 0 101 44">
    <g fill="#EE0E33" clip-path="url(#prefix__clip0)">
        <path d="M36.44 8.516h-5.612v5.61h5.611v-5.61zM36.44 25.481h-5.612v5.611h5.611v-5.611zM65.22 2.64l1.783 1.849v14.325l-1.782 1.782-3.829-3.829V6.535l3.829-3.894zM65.22 22.577l1.783 1.848V38.75l-1.782 1.782-3.829-3.828V26.47l3.829-3.894zM23.369 0l1.782 1.848V25.35l-1.782 1.848-3.83-5.017V3.895L23.37 0zM23.369 29.178l1.782 1.848v10.298l-1.782 1.849-3.83-3.895v-6.271l3.83-3.83zM99.218 0L101 1.848v16.966l-1.782 1.782-3.83-3.829V3.895L99.219 0zM99.218 22.576L101 24.425V38.75l-1.782 1.782-3.83-3.829V26.471l3.83-3.895zM43.833 2.64L42.05 4.49v14.325l1.783 1.782 3.894-3.829V6.535l-3.894-3.894zM1.782 0L0 1.848v6.734l1.782 1.848 3.83-3.895v-2.64L1.781 0zM74.463 0L72.68 1.848v16.966l1.783 1.782 3.829-3.829V3.895L74.462 0zM86.08 22.576L84.3 24.425v9.374l1.782 1.782 3.829-3.829v-5.28l-3.83-3.896zM43.833 22.576l-1.783 1.849V38.75l1.783 1.782 3.828-3.829.066-10.232-3.894-3.895zM1.782 12.345L0 14.193v27.131l1.782 1.849 3.83-3.895V17.362l-3.83-5.017zM15.183 18.55l-5.347-6.8-6.14-1.518-1.254 1.254 8.12 10.298"/>
        <path d="M10.034 21.19l5.347 6.734 6.14 1.584 1.253-1.32-8.12-10.298M64.429 1.782L62.646 0H46.473l-1.848 1.782 3.828 3.895H60.6l3.829-3.895zM64.429 41.39l-1.783 1.783H46.473l-1.848-1.783 3.828-3.828H60.6l3.829 3.828zM74.397 22.576l-1.783 1.849V38.75l1.783 1.782 3.894-3.829V26.471l-3.894-3.895zM98.492 41.39l-1.849 1.783H77.037L75.19 41.39l3.895-3.828h15.513l3.895 3.828z"/>
    </g>
    <defs>
        <clipPath id="prefix__clip0">
            <path fill="#fff" d="M0 0H101V44H0z"/>
        </clipPath>
    </defs>
</svg>
