<svg width="57" height="44" viewBox="0 0 57 44" fill="none" xmlns="http://www.w3.org/2000/svg">
<path id="right11" d="M23.3014 2.64062L25.0838 4.48899V18.8138L23.3014 20.5962L19.4727 16.7674V6.5354L23.3014 2.64062Z" fill="#EE0E33"/>
<path id="right12" d="M23.3014 22.5767L25.0838 24.425V38.7499L23.3014 40.5322L19.4727 36.7035V26.4714L23.3014 22.5767Z" fill="#EE0E33"/>
<path id="left11" d="M1.91321 2.64062L0.130859 4.48899V18.8138L1.91321 20.5962L5.80799 16.7674V6.5354L1.91321 2.64062Z" fill="#EE0E33"/>
<path id="left12" d="M1.91321 22.5764L0.130859 24.4248V38.7496L1.91321 40.532L5.74197 36.7032L5.80799 26.4712L1.91321 22.5764Z" fill="#EE0E33"/>
<path id="top1" d="M22.509 1.78235L20.7266 0H4.55345L2.70508 1.78235L6.53384 5.67712H18.6802L22.509 1.78235Z" fill="#EE0E33"/>
<path id="bottom1" d="M22.509 41.3903L20.7266 43.1726H4.55345L2.70508 41.3903L6.53384 37.5615H18.6802L22.509 41.3903Z" fill="#EE0E33"/>
<path id="middle1" d="M20.7266 23.2744L22.5088 21.4922L20.7266 19.7175L18.6807 17.6633H6.53418L2.70508 21.4922L6.53418 25.3289H18.6807L20.7266 23.2744Z" fill="#EE0E33"/>
<path id="right21" d="M54.3014 2.64062L56.0838 4.48899V18.8138L54.3014 20.5962L50.4727 16.7674V6.5354L54.3014 2.64062Z" fill="#EE0E33"/>
<path id="right22" d="M54.3014 22.5767L56.0838 24.425V38.7499L54.3014 40.5322L50.4727 36.7035V26.4714L54.3014 22.5767Z" fill="#EE0E33"/>
<path id="left21" d="M32.9132 2.64062L31.1309 4.48899V18.8138L32.9132 20.5962L36.808 16.7674V6.5354L32.9132 2.64062Z" fill="#EE0E33"/>
<path id="left22" d="M32.9132 22.5764L31.1309 24.4248V38.7496L32.9132 40.532L36.742 36.7032L36.808 26.4712L32.9132 22.5764Z" fill="#EE0E33"/>
<path id="top2" d="M53.509 1.78235L51.7266 0H35.5534L33.7051 1.78235L37.5338 5.67712H49.6802L53.509 1.78235Z" fill="#EE0E33"/>
<path id="bottom2" d="M53.509 41.3903L51.7266 43.1726H35.5534L33.7051 41.3903L37.5338 37.5615H49.6802L53.509 41.3903Z" fill="#EE0E33"/>
<path id="middle2" d="M51.7266 23.2744L53.5088 21.4922L51.7266 19.7175L49.6807 17.6633H37.5342L33.7051 21.4922L37.5342 25.3289H49.6807L51.7266 23.2744Z" fill="#EE0E33"/>
</svg>
