<svg width="127" height="44" viewBox="0 0 127 44" fill="none" xmlns="http://www.w3.org/2000/svg">
<path id="right-top1" d="M23.3014 2.64062L25.0838 4.48899V18.8138L23.3014 20.5962L19.4727 16.7674V6.5354L23.3014 2.64062Z" fill="#EE0E33"/>
<path id="right-top3" d="M93.3014 2.64062L95.0838 4.48899V18.8138L93.3014 20.5962L89.4727 16.7674V6.5354L93.3014 2.64062Z" fill="#EE0E33"/>
<path id="right-bottom1" d="M23.3014 22.5767L25.0838 24.425V38.7499L23.3014 40.5322L19.4727 36.7035V26.4714L23.3014 22.5767Z" fill="#EE0E33"/>
<path id="right-bottom3" d="M93.3014 22.5767L95.0838 24.425V38.7499L93.3014 40.5322L89.4727 36.7035V26.4714L93.3014 22.5767Z" fill="#EE0E33"/>
<path id="left-top1" d="M1.91321 2.64062L0.130859 4.48899V18.8138L1.91321 20.5962L5.80799 16.7674V6.5354L1.91321 2.64062Z" fill="#EE0E33"/>
<path id="left-top3" d="M71.9132 2.64062L70.1309 4.48899V18.8138L71.9132 20.5962L75.808 16.7674V6.5354L71.9132 2.64062Z" fill="#EE0E33"/>
<path id="left-bottom1" d="M1.91321 22.5764L0.130859 24.4248V38.7496L1.91321 40.532L5.74197 36.7032L5.80799 26.4712L1.91321 22.5764Z" fill="#EE0E33"/>
<path id="left-bottom3" d="M71.9132 22.5764L70.1309 24.4248V38.7496L71.9132 40.532L75.742 36.7032L75.808 26.4712L71.9132 22.5764Z" fill="#EE0E33"/>
<path id="top1" d="M22.509 1.78235L20.7266 0H4.55345L2.70508 1.78235L6.53384 5.67712H18.6802L22.509 1.78235Z" fill="#EE0E33"/>
<path id="top3" d="M92.509 1.78235L90.7266 0H74.5534L72.7051 1.78235L76.5338 5.67712H88.6802L92.509 1.78235Z" fill="#EE0E33"/>
<path id="bottom1" d="M22.509 41.3903L20.7266 43.1726H4.55345L2.70508 41.3903L6.53384 37.5615H18.6802L22.509 41.3903Z" fill="#EE0E33"/>
<path id="bottom3" d="M92.509 41.3903L90.7266 43.1726H74.5534L72.7051 41.3903L76.5338 37.5615H88.6802L92.509 41.3903Z" fill="#EE0E33"/>
<path id="middle1" d="M20.7266 23.2744L22.5088 21.4922L20.7266 19.7175L18.6807 17.6633H6.53418L2.70508 21.4922L6.53418 25.3289H18.6807L20.7266 23.2744Z" fill="#EE0E33"/>
<path id="middle3" d="M90.7266 23.2744L92.5088 21.4922L90.7266 19.7175L88.6807 17.6633H76.5342L72.7051 21.4922L76.5342 25.3289H88.6807L90.7266 23.2744Z" fill="#EE0E33"/>
<path id="right-top2" d="M54.3014 2.64062L56.0838 4.48899V18.8138L54.3014 20.5962L50.4727 16.7674V6.5354L54.3014 2.64062Z" fill="#EE0E33"/>
<path id="right-top4" d="M124.301 2.64062L126.084 4.48899V18.8138L124.301 20.5962L120.473 16.7674V6.5354L124.301 2.64062Z" fill="#EE0E33"/>
<path id="right-bottom2" d="M54.3014 22.5767L56.0838 24.425V38.7499L54.3014 40.5322L50.4727 36.7035V26.4714L54.3014 22.5767Z" fill="#EE0E33"/>
<path id="right-bottom4" d="M124.301 22.5767L126.084 24.425V38.7499L124.301 40.5322L120.473 36.7035V26.4714L124.301 22.5767Z" fill="#EE0E33"/>
<path id="left-top2" d="M32.9132 2.64062L31.1309 4.48899V18.8138L32.9132 20.5962L36.808 16.7674V6.5354L32.9132 2.64062Z" fill="#EE0E33"/>
<path id="left-top4" d="M102.913 2.64062L101.131 4.48899V18.8138L102.913 20.5962L106.808 16.7674V6.5354L102.913 2.64062Z" fill="#EE0E33"/>
<path id="left-bottom2" d="M32.9132 22.5764L31.1309 24.4248V38.7496L32.9132 40.532L36.742 36.7032L36.808 26.4712L32.9132 22.5764Z" fill="#EE0E33"/>
<path id="left-bottom4" d="M102.913 22.5764L101.131 24.4248V38.7496L102.913 40.532L106.742 36.7032L106.808 26.4712L102.913 22.5764Z" fill="#EE0E33"/>
<path id="top2" d="M53.509 1.78235L51.7266 0H35.5534L33.7051 1.78235L37.5338 5.67712H49.6802L53.509 1.78235Z" fill="#EE0E33"/>
<path id="top4" d="M123.509 1.78235L121.727 0H105.553L103.705 1.78235L107.534 5.67712H119.68L123.509 1.78235Z" fill="#EE0E33"/>
<path id="bottom2" d="M53.509 41.3903L51.7266 43.1726H35.5534L33.7051 41.3903L37.5338 37.5615H49.6802L53.509 41.3903Z" fill="#EE0E33"/>
<path id="bottom4" d="M123.509 41.3903L121.727 43.1726H105.553L103.705 41.3903L107.534 37.5615H119.68L123.509 41.3903Z" fill="#EE0E33"/>
<path id="middle2" d="M51.7266 23.2744L53.5088 21.4922L51.7266 19.7175L49.6807 17.6633H37.5342L33.7051 21.4922L37.5342 25.3289H49.6807L51.7266 23.2744Z" fill="#EE0E33"/>
<path id="middle4" d="M121.727 23.2744L123.509 21.4922L121.727 19.7175L119.681 17.6633H107.534L103.705 21.4922L107.534 25.3289H119.681L121.727 23.2744Z" fill="#EE0E33"/>
</svg>
