<?xml version="1.0" standalone="no"?>
<!DOCTYPE svg PUBLIC "-//W3C//DTD SVG 20010904//EN"
 "http://www.w3.org/TR/2001/REC-SVG-20010904/DTD/svg10.dtd">
<svg version="1.0" xmlns="http://www.w3.org/2000/svg"
 width="700.000000pt" height="700.000000pt" viewBox="0 0 700.000000 700.000000"
 preserveAspectRatio="xMidYMid meet">
<metadata>
Created by potrace 1.11, written by Peter Selinger 2001-2013
</metadata>
<g transform="translate(0.000000,700.000000) scale(0.100000,-0.100000)"
fill="#000000" stroke="none">
<path d="M1882 6429 l-131 -134 -1 -495 0 -495 131 -135 130 -135 279 284
c183 185 280 291 281 305 0 12 0 99 1 195 l0 173 -100 102 c-55 55 -181 184
-280 285 l-179 184 -131 -134z"/>
<path d="M4974 6358 c-313 -316 -354 -358 -356 -366 0 -4 -2 -608 -3 -1342 -2
-1331 -2 -1335 19 -1365 11 -16 23 -32 26 -35 3 -3 64 -81 135 -175 71 -93
156 -206 190 -250 34 -44 90 -118 125 -164 l64 -83 130 133 131 134 0 1724 0
1723 -130 135 -130 135 -201 -204z"/>
<path d="M2197 4970 l-89 -90 19 -24 c31 -41 227 -290 245 -311 9 -11 76 -96
150 -190 73 -93 138 -177 145 -185 38 -47 192 -242 213 -270 14 -18 90 -114
169 -214 79 -99 157 -201 174 -226 17 -25 67 -91 111 -146 45 -56 146 -184
226 -284 80 -101 150 -188 155 -194 6 -7 26 -32 45 -56 19 -25 38 -49 42 -55
35 -45 192 -241 197 -247 3 -4 128 -38 276 -77 149 -38 333 -86 410 -106 77
-21 158 -41 180 -46 l40 -8 87 92 c49 50 88 95 88 100 0 7 -111 153 -155 204
-5 6 -20 24 -31 40 -12 15 -77 98 -144 183 -67 85 -132 168 -143 183 -12 16
-26 34 -32 40 -20 24 -368 464 -464 588 -110 140 -186 238 -211 269 -15 19
-65 83 -111 142 -143 182 -319 405 -446 565 -67 85 -127 163 -135 174 -10 14
-55 30 -173 59 -88 22 -169 42 -180 44 -11 2 -138 34 -282 70 -144 36 -268 66
-275 66 -7 0 -53 -41 -101 -90z"/>
<path d="M1878 4617 l-127 -132 0 -1990 0 -1990 130 -134 131 -135 279 285
279 284 0 545 c1 300 1 1023 2 1607 l0 1061 -43 58 c-24 32 -50 65 -56 74 -16
19 -357 466 -381 498 -9 13 -29 38 -44 55 -15 18 -28 35 -28 40 0 18 -23 -2
-142 -126z"/>
<path d="M4890 2005 l-275 -276 -1 -461 -1 -462 266 -269 c146 -148 273 -276
281 -285 12 -13 30 1 145 120 l130 134 0 757 0 757 -72 72 c-39 40 -96 99
-127 131 -30 31 -59 57 -63 57 -5 0 -132 -124 -283 -275z"/>
</g>
</svg>
