<svg xmlns="http://www.w3.org/2000/svg" width="300" height="100" fill="none" viewBox="0 0 300 100">
    <path fill="#fff" d="M56.04 100l40.776-20.167-4.445-7L56.041 90.5v-2L21.063 71.667l2.126-3.5L56.04 84h.193L89.28 68l-4.638-6.667-28.6 14v-2L28.793 60.167l2.126-3.334L56.04 68.667v.166-.166L81.55 56.5l-4.638-6.833L56.04 60v-2l-19.518-9.333 2.126-3.5 17.392 8.5 17.779-8.834-4.445-6.666-13.334 6.5v-1.834l-11.788-5.5 2.126-3.5 9.662 4.5L66.09 33.5l-4.445-6.333-5.604 2.666v-2l-4.445-2L56.041 14.5 47.538 27l1.353.667 5.797 2.833 1.353.5v.167l5.218-2.667 3.092 4.667-8.31 4.166v-2l-10.629-5.166-5.41 8L56.04 46v-.167l12.948-6.166 3.091 5L56.04 52.5v-1.833l-18.358-9-5.41 7.833L56.04 61.167l20.677-10L79.81 56 56.04 67.667v-2L29.76 53l-5.218 8.167L56.04 76.5l28.407-13.833L87.54 67.5 56.04 83v-2L22.03 64.5l-5.412 8.167 39.423 19 35.944-17.5 3.092 5.333L56.04 98.833v-2.5L14.3 76l-2.126 3 43.867 21zM123.453 32.166c0-.333.193-.333.387-.333h9.662c.386 0 .386.333.386.333v2.167c0 .333-.193.333-.386.333h-6.57v2.667h5.217c.387 0 .387.333.387.333V40c0 .333-.387.333-.387.333h-5.217V43h6.57c.386 0 .386.333.386.333V45.5c0 .333-.193.333-.386.333h-9.662c-.387 0-.387-.333-.387-.333V32.166zM140.459 32.166c0-.333.193-.333.386-.333h5.798c2.899 0 5.218 2 5.218 4.5 0 2.667-2.319 4.5-5.218 4.5h-2.512v4.833c0 .334-.387.334-.387.334h-2.705c-.387 0-.387-.334-.387-.334l-.193-13.5zM146.45 38c.966 0 1.739-.667 1.739-1.5 0-.834-.966-1.5-1.739-1.5h-2.319v3.166L146.45 38zM157.465 32.166c0-.333.386-.333.386-.333h3.092c.387 0 .387.333.387.333V45.5c0 .333-.387.333-.387.333h-2.898c-.387 0-.387-.333-.387-.333V32.166h-.193zM175.823 31.666c2.319 0 4.058.667 5.798 2 .386.167.386.333 0 .5l-1.74 1.667c-.193.166-.386.166-.579 0-.967-.667-2.126-1-3.092-1-2.706 0-4.638 2-4.638 4.166 0 2.167 1.932 4.167 4.638 4.167 1.159 0 2.319-.333 3.092-1 .193-.167.386-.167.579 0l1.74 1.667c.193.166.193.333 0 .5-1.546 1.333-3.672 2-5.798 2-4.638 0-8.503-3.334-8.503-7.334 0-4 3.865-7.333 8.503-7.333zM185.486 45.5l7.343-13.5.386-.334h.387c.193 0 .386.167.386.333l7.344 13.5c.193.334 0 .5-.387.5h-2.512c-.386 0-.58-.166-.773-.5l-.966-1.5h-6.377l-.967 1.667c-.193.333-.386.333-.966.333h-2.319c-.579 0-.773-.166-.579-.5zm9.662-4.334l-1.739-3.333-1.74 3.333h3.479zM121.327 64.166l7.343-13.5.387-.333h.386c.194 0 .387.167.387.333l7.343 13.5c.194.334 0 .5-.386.5h-2.899c-.386 0-.58-.166-.773-.5l-.966-1.5h-6.184l-.966 1.667c-.193.333-.387.333-.966.333h-2.513c-.193.167-.386-.166-.193-.5zM130.796 60l-1.739-3.334L127.318 60h3.478zM139.879 51.166c-.193-.333.193-.333.386-.333h2.706c.193 0 .386.166.386.333l1.933 6.833h.193l3.672-7 .386-.333h.387c.386 0 .386.167.386.333l3.672 7h.193l1.933-6.833c0-.167.386-.333.386-.333h2.706c.386 0 .386.333.386.333l-4.445 13.5c0 .167-.386.333-.386.333h-.387c-.193 0-.386-.166-.386-.333l-4.445-8h-.193l-4.251 8.167-.387.333h-.386c-.194 0-.387-.167-.387-.333l-4.058-13.667zM162.296 64.166l7.343-13.5.387-.333h.386c.194 0 .387.167.387.333l7.343 13.5c.193.334 0 .5-.386.5h-2.513c-.386 0-.579-.166-.773-.5l-.966-1.5h-6.184l-.966 1.667c-.193.333-.386.333-.966.333h-2.512c-.387.167-.58-.166-.58-.5zM171.958 60l-1.739-3.334L168.48 60h3.478zM183.166 51.166c0-.333.193-.333.386-.333h6.957c2.899 0 5.218 2 5.218 4.333 0 1.834-1.353 3.334-3.478 3.834l3.092 5.166c.193.334-.001.5-.387.5h-3.092c-.193 0-.386-.166-.386-.333L188.384 59h-1.74v5.166c0 .334-.386.334-.386.334h-2.899c-.386 0-.386-.334-.386-.334.193 0 .193-13 .193-13zm6.957 5.5c.966 0 1.739-.833 1.739-1.666 0-.834-.773-1.5-1.739-1.5h-3.285v3.166h3.285zM201.911 51.166c0-.333.193-.333.387-.333h5.604c4.444 0 8.116 3.167 8.116 7s-3.672 7-8.116 7h-5.411c-.387 0-.387-.333-.387-.333l-.193-13.334zm5.798 10.667c2.705 0 4.444-1.833 4.444-4 0-2.333-1.932-4-4.444-4h-2.126V62h2.126v-.167zM221.236 62.833l1.16-1.666c.193-.334.58-.334.773-.167.193 0 1.739 1 3.285 1 .966 0 1.739-.5 1.739-1.167 0-.833-.773-1.5-2.512-2-2.126-.666-4.445-2-4.445-4.5 0-2 1.74-3.833 5.218-3.833 2.512 0 4.251 1 5.024 1.5.387.167.387.5.194.667l-1.16 1.5c-.193.333-.58.333-.773.333-.386-.167-1.932-1.167-3.285-1.167-.966 0-1.353.334-1.353 1 0 .834.58 1.334 2.512 2 1.74.667 4.638 1.834 4.638 4.5 0 2.167-2.125 4.167-5.411 4.167-3.091 0-4.637-1-5.217-1.5-.387-.167-.387-.333-.387-.667zM123.453 77.666l2.706-5.166s0-.167.193-.167h.193c.193 0 .193 0 .193.167l2.706 5.166c0 .167 0 .334-.193.334h-.387c-.193 0-.193 0-.193-.167l-.58-1.333h-3.285l-.58 1.333s0 .167-.193.167h-.387c-.193 0-.193-.167-.193-.334zm4.252-1.5c-.387-.833-.967-1.666-1.353-2.5l-1.353 2.5h2.706zM135.048 72.833c0-.167 0-.167 0 0l2.126-.167c1.739 0 3.092 1.167 3.092 2.667 0 1.5-1.353 2.666-3.092 2.666h-1.933c-.193 0-.193-.166-.193-.166v-5zm2.126 4.666c1.546 0 2.512-.833 2.512-2.166 0-1.334-.966-2.167-2.512-2.167h-1.353v4.333h1.353zM143.357 72.833c0-.167 0-.167 0 0l.387-.167c.193 0 .193.167.193.167v5.166c0 .167-.193.167-.193.167h-.387c-.193 0-.193-.167-.193-.167v-5.166h.193zM147.223 72.833c0-.167 0-.167 0 0l3.671-.167c.194 0 .194.167.194.167v.333c0 .167 0 .167-.194.167h-3.092v2.166h2.513c.193 0 .193.167.193.167v.333c0 .167-.193.167-.193.167h-2.513v2.167c0 .166-.193.166-.193.166h-.193c-.193 0-.193-.166-.193-.166v-5.5zM153.793 72.833c0-.167 0-.167 0 0l3.672-.167c.193 0 .193.167.193.167v.333c0 .167 0 .167-.193.167h-3.092v2.166h2.512c.193 0 .193.167.193.167v.333c0 .167-.193.167-.193.167h-2.512v2.167c0 .166-.194.166-.194.166h-.386c-.193 0-.193-.166-.193-.166l.193-5.5zM160.17 72.833c0-.167 0-.167 0 0l3.672-.167c.193 0 .193.167.193.167v.333c0 .167 0 .167-.193.167h-2.899v1.666h2.512c.193 0 .193.167.193.167v.333c0 .167-.193.167-.193.167h-2.512v2h3.092c.193 0 .193.167.193.167v.333c0 .167 0 .167-.193.167h-3.479c-.193 0-.193-.167-.193-.167v-5.333h-.193zM167.127 72.833c0-.167 0-.167 0 0l2.512-.167c.966 0 1.932.833 1.932 1.667 0 .666-.579 1.333-1.352 1.5l1.159 2c0 .166 0 .333-.193.333h-.58c-.193 0-.193 0-.193-.167l-1.16-2.166h-1.739v2c0 .166-.193.166-.193.166h-.387c-.193 0-.193-.166-.193-.166v-5h.387zm2.319 2.5c.773 0 1.352-.5 1.352-1.167s-.579-1-1.352-1h-1.74v2.167h1.74zM174.277 72.833c0-.167 0-.167 0 0l3.672-.167c.193 0 .193.167.193.167v.333c0 .167 0 .167-.193.167h-3.092v1.666h2.512c.194 0 .194.167.194.167v.333c0 .167-.194.167-.194.167h-2.512v2h3.092c.193 0 .193.167.193.167v.333c0 .167 0 .167-.193.167h-3.478c-.194 0-.194-.167-.194-.167v-5.333zM181.04 72.666c0-.167.193-.167 0 0l.387-.167 4.058 4.333v-4c0-.166 0-.166.193-.166h.386c.194 0 .194.166.194.166V78c0 .167-.194.167-.194.167h-.193l-4.058-4.5v4.166c0 .167 0 .167-.193.167h-.387c-.193 0-.193-.167-.193-.167v-5.166zM190.316 72.999h-1.546c-.193 0-.193-.167-.193-.167v-.166c0-.167 0-.167.193-.167h3.865c.194 0 .194.167.194.167v.333c0 .167 0 .167-.194.167h-1.546v4.666c0 .167-.193.167-.193.167h-.386c-.194 0-.194-.167-.194-.167V73zM197.853 77.666l2.706-5.166s0-.167.193-.167h.193c.193 0 .193 0 .193.167l2.706 5.166c0 .167 0 .334-.193.334h-.387c-.193 0-.193 0-.193-.167l-.58-1.333h-3.092l-.58 1.333s0 .167-.193.167h-.386c-.387 0-.58-.167-.387-.334zm4.252-1.5c-.387-.833-.967-1.666-1.353-2.5l-1.353 2.5h2.706zM205.97 72.666c0-.167.193-.167 0 0l.386-.167 4.058 4.333v-4c0-.166 0-.166.194-.166h.386c.193 0 .193.166.193.166V78c0 .167-.193.167-.193.167h-.193l-4.058-4.5v4.166c0 .167 0 .167-.194.167h-.386c-.193 0-.193-.167-.193-.167v-5.166zM217.178 72.499c.966 0 1.546.333 2.126.833 0 0 .193.167 0 .334l-.387.333c-.193.167-.193.167-.386 0-.387-.333-.967-.667-1.74-.667-1.352 0-2.512 1-2.512 2.167 0 1.167.966 2.167 2.512 2.167.967 0 1.74-.334 1.74-.334v-1h-.967c-.193 0-.193 0-.193-.166v-.334c0-.166 0-.166.193-.166h1.546c.194 0 .194.166.194.166v2s-.967.5-2.319.5c-1.74 0-3.092-1.166-3.092-2.666 0-2 1.352-3.167 3.285-3.167zM222.395 72.833c0-.167 0-.167 0 0l.387-.167c.193 0 .193.167.193.167v4.666h2.512c.194 0 .194.167.194.167v.333c0 .167 0 .167-.194.167h-3.092c-.193 0-.193-.167-.193-.167v-5.166h.193zM228.192 72.833c0-.167 0-.167 0 0l3.672-.167c.193 0 .193.167.193.167v.333c0 .167 0 .167-.193.167h-3.092v1.666h2.512c.194 0 .194.167.194.167v.333c0 .167-.194.167-.194.167h-2.512v2h3.092c.193 0 .193.167.193.167v.333c0 .167 0 .167-.193.167h-3.478c-.194 0-.194-.167-.194-.167v-5.333zM126.351 83.833c1.74 0 3.092 1.333 3.092 2.667 0 1.5-1.352 2.666-3.092 2.666-1.739 0-3.091-1.166-3.091-2.666-.194-1.334 1.352-2.667 3.091-2.667zm0 5.167c1.353 0 2.513-1 2.513-2.167 0-1.167-1.16-2.167-2.513-2.167-1.352 0-2.512 1-2.512 2.167-.193 1.167.967 2.167 2.512 2.167zM132.343 84c0-.167 0-.167 0 0l.386-.167 4.058 4.333V84c0-.167 0-.167.194-.167h.386c.193 0 .193.167.193.167v5.166c0 .167-.193.167-.193.167h-.193L132.922 85v4.166c0 .167 0 .167-.193.167h-.386c-.194 0-.194-.167-.194-.167V84h.194zM146.836 83.833c.966 0 1.546.333 2.126.833 0 0 .193.167 0 .334l-.387.333c0 .167-.193.167-.386 0-.387-.333-.967-.5-1.74-.5-1.352 0-2.512 1-2.512 2.167 0 1.166.967 2.166 2.512 2.166.773 0 1.16-.333 1.74-.5h.193l.386-.166v.333c-.579.5-1.352.833-2.125.833-1.739 0-3.092-1.166-3.092-2.666 0-1.834 1.546-3.167 3.285-3.167zM151.86 84.167c0-.167 0-.167 0 0l2.512-.167c.967 0 1.933.833 1.933 1.667 0 .666-.58 1.333-1.353 1.5l1.16 2c0 .166 0 .333-.194.333h-.386c-.193 0-.193 0-.193-.167l-1.16-2.166h-1.739v2c0 .166-.193.166-.193.166h-.387c-.193 0-.193-.166-.193-.166v-5h.193zm2.512 2.666c.773 0 1.353-.5 1.353-1.166 0-.667-.58-1-1.353-1h-1.739v2.166h1.739zM159.203 84.167c0-.167 0-.167 0 0l3.672-.167c.193 0 .193.167.193.167v.333c0 .167 0 .167-.193.167h-3.092V86.5h2.512c.193 0 .193.167.193.167V87c0 .167-.193.167-.193.167h-2.512v2h3.092c.193 0 .193.166.193.166v.334c0 .166 0 .166-.193.166h-3.479c-.193 0-.193-.166-.193-.166v-5.5zM165.001 89.166L167.706 84s0-.167.194-.167h.193c.193 0 .193 0 .193.167l2.706 5.166c0 .167 0 .334-.194.334h-.193c-.193 0-.193 0-.193-.167l-.58-1.333h-3.092l-.58 1.333s0 .167-.193.167h-.386c-.58-.167-.58-.334-.58-.334zm4.251-1.666c-.386-.834-.966-1.667-1.352-2.5l-1.353 2.5h2.705zM173.891 84.5h-1.546c-.194 0-.194-.167-.194-.167V84c0-.167 0-.167.194-.167h3.865c.193 0 .193.167.193.167v.333c0 .167 0 .167-.193.167h-1.546v4.666c0 .167-.194.167-.194.167h-.386c-.193 0-.193-.167-.193-.167V84.5zM178.722 84.167c0-.167.193-.167 0 0l.386-.167c.193 0 .193.167.193.167v5.166c0 .167-.193.167-.193.167h-.386c-.194 0-.194-.167-.194-.167v-5.166h.194zM181.813 84.166c0-.166 0-.333.194-.333h.193c.193 0 .193 0 .193.167l2.319 4.333L187.031 84l.193-.167h.387c.193 0 .193.167.193.333l-2.705 5.167-.194.167h-.193s-.193 0-.193-.167l-2.706-5.167zM190.123 84.167c0-.167 0-.167 0 0l.386-.167c.194 0 .194.167.194.167v5.166c0 .167-.194.167-.194.167h-.386c-.193 0-.193-.167-.193-.167v-5.166h.193zM194.954 84.5h-1.546c-.193 0-.193-.167-.193-.167V84c0-.167 0-.167.193-.167h3.865c.193 0 .193.167.193.167v.333c0 .167 0 .167-.193.167h-1.546v4.666c0 .167-.193.167-.193.167h-.387c-.193 0-.193-.167-.193-.167V84.5zM201.332 86.833l-2.126-2.667c0-.166 0-.333.193-.333h.387s.193 0 .193.167l1.739 2.166L203.457 84l.194-.167h.386c.193 0 .193.167.193.333l-2.125 2.667v2.5c0 .167-.194.167-.194.167h-.386c-.193 0-.193-.167-.193-.167v-2.5z"/>
</svg>
