<svg xmlns="http://www.w3.org/2000/svg" width="300" height="100" fill="none" viewBox="0 0 300 100">
    <g clip-path="url(#prefix__clip0)">
        <path fill="#fff" d="M51.379 22.466l-35.632 61.47-1.468-2.39 34.297-59.08H41.37l-30.694 52.84-1.334-2.39 29.226-50.45h-8.541L7.473 61.233 0 74.111 14.947 100 37.5 61.233l22.42-38.767h-8.541zM59.92 89.114c-2.802 0-6.005-.266-8.274-5.975h-.4v4.78c2.402 1.593 5.472 2.39 9.075 2.39 5.872 0 9.475-3.452 9.475-8.63 0-5.576-4.67-7.302-8.14-8.497l-2.536-.93c-3.47-1.194-4.27-3.053-4.27-5.443 0-2.655 2.401-4.912 5.604-4.912 2.936 0 5.605 1.062 7.073 5.045h.4v-4.248c-2.001-1.195-4.136-1.859-7.606-1.859-4.938 0-8.808 2.655-8.808 7.568 0 3.186 1.735 5.708 5.872 7.169l3.203 1.062c4.27 1.46 5.738 3.717 5.738 6.505.134 3.452-2.002 5.975-6.405 5.975zM79.271 73.315h-6.005v.663h.8c1.602 0 2.002.399 2.002 1.86v11.284c0 1.46-.4 1.859-2.002 1.859h-.8v.664h8.807v-.664h-.8c-1.602 0-2.002-.398-2.002-1.859V73.315zm-3.737-8.099c0 1.195.934 2.257 2.269 2.257 1.201 0 2.269-.93 2.269-2.257 0-1.195-1.068-2.257-2.269-2.257-1.334 0-2.269.93-2.269 2.257zM87.144 87.254c0 1.46-.4 1.86-2.002 1.86h-.8v.663h8.808v-.664h-.801c-1.602 0-2.002-.398-2.002-1.859v-25.49h-6.005v.663h.8c1.602 0 2.002.399 2.002 1.86v22.967zM104.359 86.725l-4.27-11.55c-.267-.93.133-1.196 1.868-1.196v-.664h-8.14v.664c2.001 0 2.402.531 2.935 1.859l6.139 14.737h.801l5.872-13.94c.534-1.46 1.601-2.656 3.603-2.656v-.664h-6.539v.664h.667c1.468 0 1.735 1.46 1.068 3.187l-4.004 9.559zM122.91 73.181c2.402 0 3.737 1.992 3.87 5.046h-8.941c.534-2.39 1.868-5.046 5.071-5.046zm6.94 5.975c0-3.585-3.07-6.638-7.073-6.638-5.072 0-8.808 3.584-8.808 8.762 0 5.576 3.469 9.028 8.941 9.028 2.402 0 4.804-.797 6.806-3.452l-.267-.133c-1.468 1.86-3.736 2.523-5.471 2.523-4.538 0-6.406-3.983-6.406-8.099 0-.53 0-1.195.133-1.858h12.145v-.133zM135.32 87.254c0 1.46-.4 1.86-2.002 1.86h-.8v.663h9.608v-.664h-1.201c-1.868 0-2.269-.398-2.269-2.257V78.89c.134-2.257 2.002-4.647 4.004-4.647 1.868 0 1.601 1.46 3.069 1.46.801 0 1.201-.663 1.201-1.327 0-.93-.934-1.858-3.069-1.858-2.802 0-4.537 2.257-5.205 5.045v-4.249h-6.005v.664h.801c1.601 0 2.002.398 2.002 1.859v11.417h-.134zM177.891 65.216c0-2.257 1.868-2.656 3.336-2.656v-.796h-7.206l-8.408 21.906-8.941-21.906h-7.207v.796c1.468 0 3.47.531 3.337 2.656l-.801 20.445c-.133 2.523-.801 3.585-2.536 3.585h-1.334v.664h8.941v-.664h-1.334c-2.136 0-2.536-.93-2.403-3.452l.801-19.65 10.009 23.898h.4l9.742-25.092.801 22.437c0 1.46-.667 1.859-2.135 1.859h-1.201v.664h10.543v-.664h-1.202c-1.601 0-2.135-.398-2.135-1.859l-1.067-22.171zM192.839 73.181c2.402 0 3.737 1.992 3.87 5.046h-8.941c.534-2.39 2.002-5.046 5.071-5.046zm7.073 5.975c0-3.585-3.069-6.638-7.073-6.638-5.071 0-8.808 3.584-8.808 8.762 0 5.576 3.47 9.028 8.942 9.028 2.402 0 4.804-.797 6.806-3.452l-.267-.265c-1.468 1.726-3.737 2.522-5.472 2.522-4.537 0-6.406-3.983-6.406-8.099 0-.53 0-1.194.134-1.858h12.144zM205.383 87.254c0 1.46-.401 1.86-2.002 1.86h-.801v.663h9.609v-.664h-1.335c-1.868 0-2.269-.398-2.269-2.257V78.89c.134-2.257 2.002-4.647 4.004-4.647 1.868 0 1.601 1.46 3.069 1.46.801 0 1.201-.663 1.201-1.327 0-.93-.934-1.858-3.069-1.858-2.802 0-4.537 2.257-5.205 5.045v-4.249h-6.005v.664h.801c1.601 0 2.002.398 2.002 1.859v11.417zM221.263 81.015c0-3.319 1.468-7.7 5.471-7.7 3.87 0 2.669 3.186 4.938 3.186.667 0 1.201-.53 1.201-1.194 0-1.992-3.737-2.921-5.872-2.921-5.071 0-9.208 3.717-9.208 8.762 0 5.576 3.47 9.16 8.941 9.16 2.402 0 4.805-.796 6.539-3.45l-.4-.267c-1.468 1.86-3.47 2.523-5.071 2.523-4.538.133-6.539-3.85-6.539-8.099zM234.475 73.315v.664h.8c1.602 0 2.002.398 2.002 1.859v8.497c0 3.717 2.402 5.974 5.872 5.974 2.536 0 4.804-1.726 5.738-4.248v3.717h6.006v-.664h-.801c-1.601 0-2.002-.398-2.002-1.858v-13.94h-6.005v.663h.801c1.601 0 2.001.398 2.001 1.859v9.294c-.533 1.858-2.402 3.584-4.27 3.584-2.536 0-4.004-1.726-4.004-4.248V73.315h-6.138zM260.097 87.254c0 1.46-.4 1.86-2.001 1.86h-.801v.663h9.608v-.664h-1.201c-1.868 0-2.268-.398-2.268-2.257V78.89c.133-2.257 2.001-4.647 4.003-4.647 1.869 0 1.602 1.46 3.07 1.46.8 0 1.201-.663 1.201-1.327 0-.93-.934-1.858-3.07-1.858-2.802 0-4.537 2.257-5.204 5.045v-4.249h-6.006v.664h.801c1.602 0 2.002.398 2.002 1.859v11.417h-.134zM283.319 86.59l-4.27-11.55c-.4-.929.133-1.195 1.868-1.195v-.663h-8.14v.663c2.001 0 2.402.531 2.936 1.726l6.005 14.339-2.135 5.31c-1.335 3.054-2.136 3.452-3.07 3.452-1.334 0-1.067-1.991-2.669-1.991-.8 0-1.334.531-1.334 1.328 0 1.195 1.735 1.991 3.203 1.991 1.468 0 3.202-.266 4.804-4.116l8.14-19.25c.534-1.46 1.468-2.656 3.47-2.656v-.664h-6.672v.664h.667c1.468 0 1.868 1.46 1.067 3.187l-3.87 9.426zM293.595 85.53v1.593h-.267c0-.266-.133-.399-.133-.532 0-.132-.133-.265-.133-.398-.134-.133-.134-.133-.401-.265-.133 0-.4-.133-.534-.133v3.319c0 .133 0 .265.134.265.133.133.267.133.4.133v.266h-2.002v-.266c.267 0 .401 0 .401-.133.133-.132.133-.132.133-.265v-3.32c-.267 0-.4 0-.534.134-.133 0-.266.132-.4.265-.133.133-.133.266-.267.398 0 .133-.133.399-.133.532h-.267v-1.594h4.003zm1.869 3.717c0 .132 0 .265.133.265.134.133.267.133.4.133v.266h-1.467v-.266c.266 0 .4 0 .4-.133.133-.133.133-.133.133-.265v-3.054c0-.133 0-.265-.133-.265-.134-.133-.267-.133-.4-.133v-.266h1.467l1.335 3.054 1.201-3.054h1.468v.266c-.267 0-.4 0-.4.133-.134.132-.134.132-.134.265v3.054c0 .132 0 .265.134.265.133.133.267.133.4.133v.266h-2.002v-.266c.267 0 .401 0 .401-.133.133-.133.133-.133.133-.265v-2.788l-1.468 3.451h-.267l-1.468-3.451v2.788h.134z"/>
    </g>
    <defs>
        <clipPath id="prefix__clip0">
            <path fill="#fff" d="M0 0H300V100H0z"/>
        </clipPath>
    </defs>
</svg>
