<svg xmlns="http://www.w3.org/2000/svg" width="300" height="100" fill="none" viewBox="0 0 300 100">
    <path fill="#fff" d="M123.058 34.287l2.861-2.608c.36.715.942 1.277 1.742 1.688.8.41 1.7.615 2.697.615 1.205 0 2.159-.229 2.86-.688.702-.459 1.054-1.076 1.054-1.853 0-.917-1.168-1.83-3.503-2.74-.757-.29-1.355-.529-1.792-.714-2.104-.882-3.562-1.745-4.373-2.588-.811-.842-1.217-1.846-1.217-3.01 0-1.597.786-2.91 2.359-3.938s3.615-1.541 6.123-1.541c1.46 0 2.716.204 3.775.615 1.056.41 1.992 1.053 2.803 1.926l-3.042 2.342c-.361-.564-.84-.986-1.438-1.264-.597-.278-1.318-.417-2.163-.417-1.018 0-1.841.205-2.465.616-.625.41-.937.941-.937 1.594 0 1.024 1.239 1.96 3.715 2.806.493.168.872.3 1.134.397 2.039.75 3.549 1.597 4.529 2.542.981.943 1.472 2.02 1.472 3.229 0 1.817-.769 3.267-2.309 4.348-1.54 1.08-3.609 1.62-6.207 1.62-1.841 0-3.419-.255-4.734-.767-1.316-.511-2.298-1.248-2.944-2.21zm-17.673 2.462V17.373h14.172v3.494h-9.026v3.983h9.026v3.52h-9.026v4.857h9.026v3.522h-14.172zm-28.292.096V17.47h5.343L94.932 30.77l-.034-13.301h4.917v19.376h-5.048L82.008 23.514v13.332h-4.915zm9.566 31.942V40.49h7.808l18.259 19.426-.05-19.425h7.184v28.296h-7.376l-18.643-19.47v19.47H86.66zM49.224 36.845V17.47h5.343L67.064 30.77l-.035-13.301h4.917v19.376h-5.048L54.139 23.514v13.332h-4.915zM37.68 29.377l-3.371-8.01-3.304 8.01h6.675zM22.36 36.75l9.157-19.376h5.887l9.288 19.376h-5.854l-1.955-4.117h-9.323l-1.676 4.117h-5.524zm-1.923-14.334c-1.043-.75-2.111-1.3-3.205-1.648-1.096-.349-2.27-.522-3.519-.522-2.566 0-4.61.617-6.133 1.853-1.522 1.235-2.284 2.894-2.284 4.976 0 2.038.704 3.654 2.12 4.85 1.415 1.196 3.343 1.794 5.786 1.794 1.392 0 2.685-.187 3.88-.564 1.195-.373 2.303-.936 3.321-1.687l-.032 4.249c-1.096.52-2.245.908-3.444 1.164-1.202.256-2.465.385-3.79.385-3.835 0-6.984-.96-9.446-2.88C1.23 32.468 0 30.03 0 27.075c0-2.947 1.232-5.378 3.7-7.293 2.466-1.914 5.643-2.871 9.535-2.871 1.304 0 2.564.11 3.78.33 1.22.22 2.419.56 3.6 1.02l-.18 4.155zm104.779 42.827l4.188-3.816c.529 1.046 1.378 1.869 2.55 2.47 1.171.6 2.486.9 3.946.9 1.765 0 3.16-.335 4.188-1.006 1.027-.672 1.539-1.576 1.539-2.713 0-1.343-1.709-2.68-5.124-4.01-1.107-.426-1.983-.775-2.625-1.046-3.08-1.291-5.213-2.553-6.399-3.787-1.188-1.233-1.782-2.703-1.782-4.407 0-2.337 1.152-4.258 3.454-5.762 2.301-1.505 5.289-2.258 8.964-2.258 2.134 0 3.973.3 5.522.901 1.547.601 2.916 1.54 4.103 2.82l-4.451 3.427c-.53-.825-1.233-1.443-2.106-1.85-.875-.406-1.93-.61-3.165-.61-1.492 0-2.695.3-3.61.9-.914.601-1.371 1.38-1.371 2.335 0 1.499 1.813 2.867 5.438 4.107.721.245 1.275.44 1.661.581 2.983 1.097 5.193 2.338 6.629 3.719 1.435 1.383 2.153 2.958 2.153 4.727 0 2.66-1.127 4.781-3.38 6.364-2.254 1.58-5.282 2.372-9.085 2.372-2.694 0-5.005-.375-6.929-1.124-1.926-.748-3.363-1.826-4.308-3.234zm-63.961-1.047c3.194 0 5.827-.9 7.905-2.701 2.078-1.802 3.117-4.059 3.117-6.771 0-2.685-1.051-4.946-3.153-6.78-2.102-1.833-4.724-2.75-7.87-2.75-3.19 0-5.838.914-7.94 2.74-2.102 1.828-3.152 4.091-3.152 6.79 0 2.738 1.035 5.001 3.104 6.79 2.07 1.788 4.732 2.682 7.989 2.682zm18.77-9.472c0 2.028-.47 3.946-1.409 5.753-.937 1.809-2.288 3.397-4.053 4.766-1.83 1.408-3.89 2.486-6.186 3.234-2.294.75-4.668 1.124-7.122 1.124-2.15 0-4.255-.293-6.316-.881-2.062-.588-3.951-1.43-5.667-2.528-2.214-1.42-3.911-3.119-5.09-5.095-1.18-1.975-1.768-4.1-1.768-6.373 0-2.04.464-3.954 1.395-5.743.93-1.788 2.295-3.38 4.09-4.775 1.765-1.382 3.814-2.454 6.15-3.216 2.333-.761 4.736-1.143 7.206-1.143 2.454 0 4.84.382 7.16 1.143 2.318.762 4.367 1.834 6.148 3.216 1.78 1.394 3.135 2.99 4.067 4.784.929 1.796 1.395 3.707 1.395 5.734zm-51.64 14.122h7.532v-28.36h-7.532v28.36zm-24.448 0v-28.36h7.532v23.207h12.03v5.153H3.937zm129.789 6.63c-2.871-.517-4.184 1.922-4.269 2.134-.333.756.73 1.83 1.057 1.153 1.038-2.171 4.008-3.142 3.212-3.287zm49.728-37.293c.623-1.473.304-3.581.104-3.98-.205-.4-5.901 7.189-7.848 8.159 0 0 6.919-2.242 7.744-4.18zm3.066 3.476c-.435.85-3.374 5.633-3.374 5.633s6.125-4.032 7.77-9.875c1.024-3.687-4.155-12.034-3.975-11.656 2.941 6.345.014 15.042-.421 15.898zm6.629-17.82c.413.34 5.105 6.226 5.36 6.691 1.325 2.436 2.129 4.601 1.641 6.777-.489 2.133-2.203 3.954-4.058 5.415 1.05-.442 2.599-1.155 3.355-1.761.933-.732 5.172-5.852 2.093-10.366-1.584-3-7.608-6.646-8.391-6.755zm7.834 19.212c1.304-.19 2.692-.342 4.128-.398 1.686-2.047 3.786-6.544 3.057-9.675-.196 1.446-.798 4.938-4.673 8.234-.903.775-1.537 1.389-2.512 1.84zm8.327 15.753c-17.486-1.728-15.85 9.701-25.792 12.775-4.848 1.45-18.347.624-31.242 10.266-4.112 2.285-10.544.95-12.197.885-1.642-.074-4.029-.074-5.191.212-1.162.26-1.729.195-2.292-.078-.567-.28-1.327-.55-2.491-.96-1.164-.417-2.027-.417-2.027-.417s-1.313-2.19-.755-3.652c.559-1.481 1.722-2.444 2.492-2.8.774-.332.972-.4.972-.4s.031-.209-.365-.209c-.405 0-.847.41-1.094.448-.24.035-.24-.276.046-.614.284-.347 2.135-1.92 4.868-1.824 2.746.109 4.923 1.03 6.775.757 1.85-.278 5.428-1.614 10.141-4.596 4.744-3.002 9.57-7.313 15.473-11.037 5.792-3.636 10.183-5.862 11.425-6.411 1.252-.547 1.382-.582 1.582-.72.193-.14.273-.272-.846-.032-1.135.24-5.438 1.43-7.214 2.498-1.778 1.067-2.578 1.995-2.578 1.995s.241-1.584 1.691-2.916c1.46-1.337 1.617-1.474 1.894-1.65.282-.167.164-.3-.319-.069-.483.245-2.789 2.237-3.631 3.29-.842 1.067-1.291 1.649-4.027 2.029-2.731.374-5.193.892-6.274 1.748-1.091.852-1.53 1.715-1.53 1.715s-.447.47-.447-.104c0-.587.447-3.12 3.63-5.146 3.172-2.02 4.662-2.95 5.226-3.287.567-.343.536-.477.083-.446-.446.028-4.072.618-5.708 1.712-1.657 1.1-2.144 1.54-2.144 1.54s-.447.11-.285-.579c.166-.688.946-2.777 3.07-3.94 2.118-1.17 4.343-1.787 4.343-1.787l.086-1.775s-4.518-1.987-5.52-2.675c-1.014-.69-2.02-1.445-1.207-5.39.796-3.944.877-4.761.846-5.106-.05-.34-1.861-1.576-1.422-3.814.447-2.22 1.453-3.487 1.453-3.487s-.121 2.604-.081 4.01c.05 1.401.081 2.255.567 2.742.479.48.522.273.731.796.204.509-.887 4.414-1.17 5.889-.279 1.475-.894 2.844.439 2.714 1.33-.144.969-.42 1.33-.755.364-.348 1.09-.484 1.647-.348.567.138.888.378 1.455.24.564-.14 2.092 0 1.209.92-.881.935-2.293.654-1.897 1.509.403.859 5.258 3.445 6.973 2.52 2.146-1.143 3.244-1.376 3.333-2.122.074-.757-1.561-1.943-2.728-1.384-1.169.541-3.18 1.129-4.354.92-1.17-.2-1.487-.653-1.091-.614.408.033 1.612.37 2.747-.756 1.123-1.134 10.65-5.132 12.348-7.467 1.691-2.329-.958-8.1.341-9.192 1.279-1.098 10.856-2.883 12.588-3.375 3.63-1.03 6.102-3.755 5.295-6.248-.45-1.382-2.849-3.77-5.196-4.99-.571-.294 11.903 1.193 12.153 11.77.11 4.549 7.891 8.666 7.031 13.667-.652 3.733-5.084 6.644-6.804 7.44 1.086-.026 2.2.007 3.322.112 1.899.176 3.714 1.226 3.714 1.226s-12.716 1.32-16.996 3.09c-6.95 2.87-15.777 6.451-25.685 12.953-9.314 6.116-13.944 9.692-24.467 14.443-3.546 1.604-6.846 1.784-8.381 2.09-1.521.315-3.171 1.03-3.455 1.917-.279.898-.124 1.96.237 2.232.362.278.559.172.805-.272.24-.44 0-2.022 1.088-2.637 1.09-.623 1.977-.443 4.795-.792 2.815-.343 4.435-.89 4.948-.995.53-.108 1.055.037.246.481-.799.442-2.331 1.372-4.354 1.714-2.01.343-3.146.445-3.705.752-.556.306-.605.93-.605.93s1.535-.144 2.185-.03c.643.096 2.207.792 3.812.875 1.602.083 4.584.594 6.939-1.395 1.373-1.164 6.595-5.758 14.261-8.371 6.565-2.239 16.177-1.994 21.885-8.207 8.604-9.339 22.281-5.584 23.047-3.951zm-42.785-21.53c-.067.413.414.039.803-.43.384-.472 1.904-2.595 4.344-6.192 2.448-3.603 3.924-6.683 3.779-6.76-.144-.082-.51.217-.895.467-.396.243-1.194.904-1.872 1.63-.667.715-1.224.653-2.068.796-.85.15-2.393 1.585-3.288 2.187-.895.591-2.079 1.196-3.189 1.351-1.185.168-1.383-.286-1.889-.209-.504.084-.487.79-.317 1.284.176.495.032.712-.066 1.58-.093.873.63 1.727 1.236 2.22.599.493.424 1.258.811 1.52.399.266.539-1.501.539-2.594 0-1.085-.293-2.153-.242-2.318.053-.167 1.064-.39 1.54-.666.491-.26 1.678-.981 2.247-1.223.585-.254.591-.065.446.221-.146.287-.47.727-1.116 1.19-.657.478-2.202.843-2.541.862-.34.025-.317.28.028.504.343.223 1.195.223 1.959.064.767-.176.671.674.575 1.577-.096.907-.746 2.533-.824 2.938zm5.662-19.747c.738.871.069 3.598.874 3.523.789-.081 3.511-4.566 2.604-6.11-.913-1.544-7.323-3.347-8.411-3.41-4.337-.222-5.619 2.739-6.131 5.102-.221 1.067-4.359 8.743-4.155 8.51l8.551-8.237c1.48-1.262 5.599-.63 6.668.622zm10.979-9.846c5.755 1.591 7.034 5.818 5.037 7.753-1.108 1.078-2.371 1.72-5.267 3.248-2.893 1.525-4.031 2.325-4.954 2.914-.914.607-1.431 1.445.577.994.205-.045 12.394-2.282 13.97-2.983 2.65-1.17 3.403-1.995 3.825-3.515.404-1.527-2.324-4.041-3.609-5.291-2.589-2.536-8.785-5.178-9.065-5.205-3.117-.885-6.945-.155-10.049-.024-.338.013-.218.447-.035.56 2.772 1.662 6.165.869 9.57 1.549zm-38.849 25.663c-1.352-3.603-2.957-6.06-.196-9.626 2.745-3.556 3.017-6.89 3.383-8.12.355-1.238.225-2.93 3.582-4.393 3.362-1.448 5.926-1.8 8.415-2.524 2.484-.719 5.039-2.548 6.204-3.21 1.248-.713 5.522-.815 7.174 1.132 1.873 2.202 11.502 2.885 12.858 4.409 1.558 1.755.463 3.717-.357 4.484-1.665 1.534-9.082 6.835-9.715 6.892-.729.062-.276-1.566.357-2.986.64-1.42 1.667-2.411 1.325-3.85-.279-1.222-1.276-2.3-3.308-3.45-2.874-1.534-8.386-2.491-10.361-1.797-3.421 1.217-4.662 3.973-4.951 5.908-.29 1.932-.61 4.57-2.756 7.698-2.151 3.118-3.457 4.915-2.949 6.741.507 1.835 2.172 4.834 2.363 6.603.206 1.769-.043 3.195-.501 4.963-.451 1.763-.742 3.068-.094 4.235.648 1.173.965 1.422 1.129 1.58.163.174.27.458-.214.174-.485-.3-3.191-2.576-4.15-5.005-.974-2.43-.049-5.862-.441-7.06-.394-1.193-3.061-4.483-2.856-7.237.223-2.761 2.767-5.717 3.873-7.244 1.109-1.528 3.571-4.401 4.086-5.719.501-1.316 1.562-3.806 2.096-4.424 0 0-.448.333-2.716 2.677-2.27 2.351-4.295 4.04-4.904 6.185-.605 2.144-2.079 4.17-3.994 5.562-1.895 1.4-.757 3.27-.128 5.541.626 2.255 1.065 3.065 2.523 5.33 1.447 2.256.758 4.09.928 4.404.166.301-1.109-1.671-1.756-2.104-.654-.43-2.59-2.174-3.949-5.769z"/>
</svg>
