<svg xmlns="http://www.w3.org/2000/svg" width="300" height="100" fill="none" viewBox="0 0 300 100">
    <path fill="#fff" d="M92.7 21.648h9.433v42.176h25.226v2.47h-34.66V21.648zM219.85 44.588c0-12.176-10.05-20.47-24.611-20.47-14.971 0-24.61 8.647-24.61 20.47 0 12.177 10.049 20.471 24.61 20.471 14.767.353 24.611-8.294 24.611-20.47zm-24.611 23.118c-20.098 0-35.274-9.53-35.274-23.118 0-13.235 15.381-23.117 35.069-23.117 19.894 0 35.07 10.058 35.07 23.117.205 13.589-15.382 23.118-34.865 23.118zM149.302 67.353h-10.665c.41-1.236 1.436-1.942 2.871-2.471 1.026-.353 1.436-1.059 1.231-1.941-.205-1.412 0-3 0-4.412-.205-1.941-.41-3.706-.82-5.647-.205-1.765-.411-3.353-.411-5.118-.205-1.588-.41-3.176-.41-4.588-.205-2.47.41-5.117 1.231-7.588.41-1.412.41-3.177-.205-4.412-.821-2.294-1.846-4.412-2.666-6.53-.821-2.117-1.231-4.235-1.641-6.352-.41-1.765-.205-3.353-.205-5.118 0-2.47 2.871-4.588 5.332-4.588 1.846 0 3.692 0 5.332 1.059 1.231.882 1.846 1.764 2.051 3.176.41 4.059-.41 7.941-1.846 11.647-1.025 2.47-2.051 4.765-2.871 7.412-.41 1.588-.41 3.353.205 4.941 1.026 2.47 1.026 4.941.821 7.588-.206 2.471-.411 4.589-1.026 7.06-.205 1.94-.41 3.705-.41 5.646-.205 1.942-.205 3.883-.205 5.824 0 1.059.205 1.412 1.23 1.941 1.436.353 2.666.882 3.077 2.47zm-6.563-41.824l.41-.353c-.205-.353-.41-.882-.41-1.059-.41-1.059.205-2.117 1.23-2.117 1.231 0 2.256 1.058 1.641 2.117-.205.353-.41.883-.41 1.06.205 0 .205.176.41.176 2.666-2.648 3.076-6 4.102-9.353-3.692 2.47-6.973 2.47-10.87 0 .205.353.205.706.205 1.058.411 2.471 1.231 5.118 2.872 7.412 0 .177.41.53.82 1.06zm-1.641-14.647c1.641.882 4.512.882 5.538 0-1.436-1.941-3.897-1.941-5.538 0zm0 4.412c1.846 2.117 4.307 1.764 5.538 0-1.641-.706-3.692-.706-5.538 0zm6.563-1.941h-7.383c.205.353.41.706.41 1.058 2.051-.705 4.102-.705 6.358 0 .41-.352.41-.705.615-1.058zm-7.178-1.06c0 .177.205.177.205.354h6.768c0-.353-.205-.883-1.026-.706-1.64.353-3.691.353-5.332 0 0 0-.41.176-.615.353zm-.615 2.471c-.205-.705-.205-1.058-.41-1.588h-1.231c.615.883.41 1.588 1.641 1.588zm8.203 0c1.026-.176 1.231-.176 1.231-1.411h-1.026c0 .706 0 1.058-.205 1.411zm-8.408-2.117c-.411-.353 1.025-1.236-.41-1.412-.206.353-.411 1.059-.411 1.412h.821zm9.228-1.588c-1.435.352-.205 1.058-.41 1.411h1.231c-.41-.353-.615-.706-.821-1.412zM66.652 58.353c-4.307 4.235-10.87 6.706-19.073 6.706-14.97 0-24.61-8.47-24.61-20.47 0-12 9.844-20.648 24.61-20.648 9.23 0 16.202 3.177 20.509 8.647l2.87-2.47c-5.536-4.765-12.714-8.647-23.584-8.647-19.893 0-35.07 10.058-35.07 23.117 0 13.589 15.382 23.118 35.07 23.118 9.844 0 16.612-2.647 22.15-6.53l-2.872-2.823zM36.094 95.941l-3.486-6.53H18.662l-3.486 6.53h-1.23L24.814 76h1.23l10.87 19.941h-.82zm-17.227-7.059h13.33l-6.767-12.53-6.563 12.53zM73.42 95.941l-7.587-19.235-7.588 19.235h-1.231L48.4 76h.82l8.41 19.765L65.216 76h1.23l7.589 19.765L82.445 76h.82l-8.819 19.941h-1.025zM116.692 95.941l-3.486-6.53H99.055l-3.487 6.53h-1.025L105.412 76h1.231l10.869 19.941h-.82zm-17.227-7.059h13.331l-6.768-12.53-6.563 12.53zM152.583 95.941c-.411-1.059-.411-2.823-.411-5.118 0-1.235-.615-2.294-2.05-3-1.231-.529-2.872-1.058-4.922-1.058h-9.845v9.176h-.82V76h11.075c1.435 0 2.666.177 3.691.353 1.026.176 1.846.53 2.461 1.059.616.353 1.231 1.059 1.436 1.588.41.53.41 1.412.41 2.294 0 .706-.205 1.235-.41 1.765-.205.53-.41 1.059-.82 1.588-.411.353-1.026.882-1.436 1.059-.615.353-1.231.53-2.051.53v.176c.41 0 1.231.176 1.641.353.41.176 1.025.353 1.23.882.41.353.821.706 1.026 1.235.205.353.41 1.06.41 1.589 0 2.47 0 4.235.41 5.117h-1.025v.353zm-17.638-9.706h10.049c2.461 0 4.512-.353 5.538-1.058 1.23-.883 2.051-1.942 2.051-3.883 0-1.765-.616-3-2.051-3.882-1.231-.706-3.077-1.06-5.948-1.06h-9.639v9.883zM172.887 95.941V76h8.408c2.051 0 4.102 0 5.743.353 1.64.353 2.871.706 4.306 1.412 1.231.882 2.051 1.764 2.871 3.353.616 1.235.821 2.823.821 4.94 0 1.942-.41 3.707-.821 4.942-.615 1.235-1.435 2.47-2.871 3.353-1.23.706-2.461 1.235-4.306 1.412-1.641.353-3.692.353-5.743.353l-8.408-.177zm.82-.53h7.383c3.692 0 6.563-.352 8.614-1.411 2.461-1.412 3.896-4.059 3.896-7.941 0-3.882-1.23-6.53-3.896-7.941-2.256-1.236-5.538-1.412-9.229-1.412h-6.768v18.706zM220.877 96.648c-1.435 0-2.871-.177-4.307-.353-1.23-.353-2.05-.706-2.871-1.236-.82-.529-1.435-1.058-1.845-1.94-.411-.707-.616-1.589-.616-2.471h1.026c0 1.412 1.025 2.823 2.461 3.882 1.64 1.059 3.896 1.765 6.357 1.765 2.461 0 4.512-.353 6.153-1.412 1.435-.882 2.256-2.294 2.256-3.882 0-1.412-.615-2.47-1.846-3.177-1.23-.706-3.076-1.059-5.332-1.235l-5.332-.882c-1.026-.177-1.641-.353-2.256-.53-.616-.353-1.231-.53-1.641-1.059-.41-.353-.615-.882-.82-1.235-.205-.53-.41-1.059-.41-1.765 0-1.588.82-3 2.05-3.882.821-.353 1.641-.882 2.666-1.059 1.231-.353 2.256-.353 3.897-.353 1.231 0 2.666.177 3.897.353 1.025.353 2.051.53 2.666 1.059.615.353 1.23 1.059 1.64 1.765.411.53.411 1.235.616 1.94h-1.026c-.41-2.646-3.281-4.587-7.793-4.587-2.256 0-4.512.353-5.742 1.235-1.231.882-2.051 1.941-2.051 3.53 0 1.588.41 2.293 1.641 2.823 1.025.53 2.461 1.059 4.922 1.235l5.332.882c1.23.177 2.051.353 2.666.706.82.353 1.23.53 1.846 1.06.41.352.82.882 1.025 1.234.205.53.41 1.06.41 1.765-.205 3.706-3.486 5.824-9.639 5.824z"/>
</svg>
