<svg xmlns="http://www.w3.org/2000/svg" width="24" height="24" fill="none" viewBox="0 0 24 24">
    <path fill="#E07E47" d="M23.297 1.732h-3.08c.011-.341.017-.684.017-1.029 0-.388-.315-.703-.703-.703H4.47c-.388 0-.703.315-.703.703 0 .345.006.688.017 1.03H.703c-.388 0-.703.314-.703.702 0 3.15.823 6.123 2.318 8.37 1.478 2.221 3.447 3.495 5.573 3.62.483.524.992.952 1.523 1.278v3.125h-1.18c-1.426 0-2.586 1.16-2.586 2.586v1.18h-.05c-.388 0-.703.314-.703.703 0 .388.315.703.703.703h12.804c.388 0 .703-.315.703-.703 0-.389-.315-.703-.703-.703h-.05v-1.18c0-1.426-1.16-2.586-2.586-2.586h-1.18v-3.125c.53-.326 1.04-.754 1.523-1.279 2.126-.124 4.095-1.398 5.573-3.619C23.177 8.558 24 5.585 24 2.435c0-.388-.315-.703-.703-.703zM3.489 10.026C2.256 8.173 1.531 5.75 1.421 3.138h2.44c.254 3.21 1.007 6.176 2.185 8.53.187.375.383.73.587 1.063-1.17-.441-2.252-1.364-3.144-2.705zm13.456 11.388v1.18h-9.89v-1.18c0-.65.529-1.18 1.18-1.18h7.53c.651 0 1.18.53 1.18 1.18zm-3.765-2.586h-2.36v-2.514c.387.102.78.155 1.18.155.4 0 .793-.053 1.18-.155v2.514zm.435-4.187c-.031.013-.062.029-.091.046-.497.247-1.008.375-1.524.375s-1.027-.128-1.523-.374c-.03-.018-.06-.034-.093-.047-.55-.292-1.084-.732-1.589-1.31-.026-.038-.056-.073-.09-.105-.5-.595-.971-1.326-1.401-2.187C6.01 8.455 5.265 5.057 5.18 1.406h13.64c-.085 3.651-.832 7.05-2.123 9.633-.43.861-.902 1.592-1.403 2.187-.033.032-.063.067-.09.105-.504.578-1.038 1.018-1.589 1.31zm6.896-4.615c-.892 1.34-1.974 2.264-3.144 2.705.204-.333.4-.688.587-1.063 1.178-2.354 1.93-5.32 2.184-8.53h2.44c-.11 2.611-.834 5.035-2.067 6.888z"/>
</svg>
