<svg xmlns="http://www.w3.org/2000/svg" width="24" height="24" fill="none" viewBox="0 0 24 24">
    <path fill="#fff" fill-rule="evenodd" d="M16.5 3h3c.826 0 1.5.674 1.5 1.5v18c0 .826-.674 1.5-1.5 1.5h-15c-.826 0-1.5-.674-1.5-1.5v-18C3 3.674 3.674 3 4.5 3h3v-.75c0-.414.336-.75.75-.75h1.627C10.188.627 11.022 0 12 0c.978 0 1.812.627 2.123 1.5h1.627c.414 0 .75.336.75.75V3zm-6 0H9v1.5h6V3h-1.5c-.414 0-.75-.336-.75-.75s-.336-.75-.75-.75-.75.336-.75.75-.336.75-.75.75zm-6 1.5v18h15v-18h-3v.75c0 .414-.336.75-.75.75h-7.5c-.414 0-.75-.336-.75-.75V4.5h-3zm7.281 4.72c-.292-.292-.768-.294-1.062-.001l-2.469 2.47-.969-.97c-.292-.293-.768-.293-1.06 0-.293.292-.293.768 0 1.06l1.5 1.5c.145.147.337.22.53.22.191 0 .383-.073.53-.218l3-3c.293-.293.293-.768 0-1.06zm0 6c-.292-.292-.768-.294-1.062-.001l-2.469 2.47-.969-.969c-.292-.292-.768-.292-1.06 0-.293.293-.293.768 0 1.06l1.5 1.5c.145.146.337.22.53.22.191 0 .383-.074.53-.22l3-3c.293-.292.293-.767 0-1.06zm1.719-3.97c0-.414.336-.75.75-.75h3c.414 0 .75.336.75.75s-.336.75-.75.75h-3c-.414 0-.75-.336-.75-.75zm4.5 6c0-.414-.336-.75-.75-.75h-3c-.414 0-.75.336-.75.75s.336.75.75.75h3c.414 0 .75-.336.75-.75z" clip-rule="evenodd"/>
</svg>
