<svg xmlns="http://www.w3.org/2000/svg" width="88" height="96" fill="none" viewBox="0 0 88 96">
    <path fill="#fff" d="M11.543 51v1.226C12.1 53 25.215 70.772 42.577 71.461h2.082c17.111-.696 30.45-18.455 31.02-19.228v-1.239c-.584-.787-14.417-19.263-32.064-19.263-17.857 0-31.501 18.483-32.072 19.27zm2.38.857c4.443-2.666 9.2-4.77 14.16-6.265-1.753 3.292-2.413 7.057-1.883 10.75.53 3.692 2.22 7.12 4.828 9.786-8.646-4.288-15.078-11.716-17.104-14.27zm42.313-6.961c1.61 2.257 2.587 4.905 2.826 7.667.24 2.763-.267 5.54-1.466 8.04-1.198 2.5-3.046 4.634-5.35 6.177-2.303 1.544-4.979 2.442-7.747 2.6H42.738c-2.777-.157-5.46-1.058-7.77-2.608-2.309-1.55-4.159-3.692-5.356-6.202s-1.697-5.296-1.448-8.066c.25-2.77 1.238-5.422 2.864-7.678 4.117-1.034 8.343-1.567 12.587-1.587 4.259.03 8.498.586 12.621 1.657zm.07 21.19c2.558-2.664 4.212-6.066 4.727-9.724.515-3.658-.136-7.385-1.86-10.652 4.916 1.523 9.632 3.626 14.05 6.266-2.082 2.547-8.48 9.794-16.917 14.097v.014zM43.615 33.82c11.368 0 21.379 8.59 26.586 14.041-5.66-2.854-15.371-6.71-26.586-6.71-11.215 0-20.878 3.745-26.51 6.53 5.173-5.417 15.065-13.861 26.51-13.861z"/>
    <path fill="#fff" d="M43.614 44.242c-1.992-.018-3.943.575-5.588 1.699s-2.906 2.726-3.613 4.59c-.707 1.862-.826 3.897-.34 5.83.485 1.933 1.551 3.67 3.054 4.978 1.503 1.309 3.372 2.125 5.353 2.338 1.981.214 3.98-.184 5.728-1.142 1.748-.957 3.16-2.427 4.046-4.212.887-1.785 1.205-3.798.912-5.77.554-.33 1.032-.773 1.405-1.3.373-.528.631-1.127.759-1.76.127-.632.12-1.284-.019-1.915-.14-.63-.41-1.224-.792-1.744-.383-.52-.87-.953-1.43-1.274-.56-.32-1.182-.52-1.824-.586-.642-.066-1.29.003-1.904.203-.614.2-1.18.525-1.66.956-1.281-.592-2.676-.896-4.087-.891zm7.568 9.648c0 1.497-.442 2.961-1.272 4.206-.831 1.246-2.012 2.217-3.395 2.79-1.383.574-2.904.725-4.373.434-1.468-.291-2.817-1.011-3.876-2.07-1.059-1.057-1.78-2.406-2.073-3.874-.292-1.468-.143-2.99.43-4.373.572-1.383 1.542-2.565 2.787-3.397 1.244-.832 2.707-1.276 4.204-1.276.985 0 1.96.194 2.869.571-.282.703-.386 1.464-.305 2.216.081.753.346 1.474.77 2.1.425.627.997 1.14 1.666 1.494.668.355 1.414.54 2.17.539h.363c.014.209.035.425.035.64zm-.397-7.81c.504 0 .996.149 1.415.429.42.28.746.678.939 1.143.192.466.243.978.145 1.472-.099.495-.341.949-.698 1.305-.356.356-.81.6-1.304.697-.494.099-1.007.048-1.472-.145-.466-.192-.864-.519-1.144-.938-.28-.419-.43-.912-.43-1.416 0-.675.27-1.323.747-1.801.478-.478 1.126-.746 1.802-.746zM44.659 82.064H42.57v13.164h2.089V82.064zM44.659 8H42.57v13.164h2.089V8zM9.51 50.57H0v2.088h9.51v-2.089zM87.22 50.57h-9.51v2.088h9.51v-2.089zM20.642 73.11l-8.605 8.605 1.477 1.477 8.605-8.605-1.477-1.477zM73.72 20.043l-8.585 8.585 1.477 1.477 8.584-8.585-1.476-1.477zM13.508 20.034l-1.477 1.477 8.59 8.59 1.477-1.477-8.59-8.59zM66.615 73.133l-1.476 1.476 8.575 8.575 1.477-1.476-8.576-8.575zM57.207 83.508l-1.945.76 1.8 4.604 1.944-.76-1.8-4.604zM30.168 14.353l-1.945.76 1.796 4.598 1.945-.76-1.796-4.598zM10.96 63.255l-4.605 1.799.76 1.945L11.72 65.2l-.76-1.945zM80.114 36.217l-4.604 1.799.76 1.945 4.604-1.799-.76-1.945zM28.757 82.926l-1.982 4.528 1.914.838 1.982-4.528-1.914-.838zM58.541 14.928l-1.982 4.527 1.913.838 1.982-4.528-1.913-.838zM7.764 34.773l-.838 1.913 4.527 1.983.838-1.913-4.527-1.983zM75.783 64.558l-.838 1.913 4.522 1.98.837-1.913-4.52-1.98z"/>
</svg>
