<svg xmlns="http://www.w3.org/2000/svg" width="90" height="90" fill="none" viewBox="0 0 90 90">
    <path fill="#fff" d="M85.262 30.039L59.96 4.739C59.488 4.264 58.847 4 58.178 4c-.668 0-1.31.265-1.782.738l-9.473 9.473c-.473.473-.738 1.114-.738 1.782 0 .668.265 1.309.738 1.781l2.325 2.325c-5.668 5.026-12.242 8.05-19.578 8.996-6.138.792-10.547-.245-10.584-.254-1.319-.326-2.658.452-3.029 1.758L.211 86.472c-.407.931-.225 2.055.544 2.808.49.48 1.126.72 1.763.72.416 0 .832-.104 1.207-.309L59.4 73.941c1.307-.37 2.086-1.71 1.76-3.03-.041-.165-3.762-16.018 8.744-30.158l2.323 2.322c.492.492 1.136.738 1.781.738s1.29-.246 1.782-.738l9.473-9.473c.473-.472.738-1.113.738-1.781 0-.669-.265-1.31-.738-1.782zm-29.386 29.88c-.514 4.175-.295 7.631-.024 9.788l-44.818 12.68 19.885-20.301c1.564.918 3.35 1.409 5.212 1.409 2.76 0 5.355-1.075 7.306-3.027 4.029-4.028 4.029-10.583 0-14.61-4.028-4.029-10.583-4.029-14.611 0-3.44 3.44-3.94 8.72-1.505 12.699L7.68 78.61 20.29 34.147c2.157.271 5.614.49 9.79-.024 5.987-.737 14.611-3.177 22.735-10.457l13.52 13.518c-7.282 8.124-9.721 16.748-10.458 22.735zM32.39 49.42c1.032-1.032 2.387-1.547 3.742-1.547s2.711.516 3.743 1.547c2.063 2.064 2.063 5.422 0 7.485-1 1-2.329 1.55-3.743 1.55-1.413 0-2.742-.55-3.742-1.55-2.064-2.063-2.064-5.421 0-7.485zm41.618-11.69l-2.378-2.377-.001-.002-19.36-19.358 5.911-5.91L79.917 31.82l-5.91 5.91z" opacity=".5"/>
</svg>
