<svg xmlns="http://www.w3.org/2000/svg" width="89" height="96" fill="none" viewBox="0 0 89 96">
    <path fill="#fff" d="M20.097 43.331h-8.96c-2.065-.086-4.017-.967-5.448-2.459s-2.23-3.479-2.23-5.546c0-2.068.799-4.055 2.23-5.547s3.383-2.373 5.449-2.46h.877v-1.113c.002-2.12.843-4.152 2.339-5.654 1.496-1.501 3.526-2.35 5.646-2.359h.605v-3.195c0-1.36.4-2.688 1.152-3.82.752-1.133 1.822-2.018 3.075-2.544 1.253-.527 2.634-.671 3.969-.416 1.335.255 2.564.9 3.535 1.851.222-1.719 1.077-3.293 2.399-4.415 1.321-1.122 3.014-1.71 4.746-1.65 1.732.06 3.38.764 4.62 1.975 1.241 1.21 1.986 2.84 2.088 4.57v7.477h-2.088v-7.47c-.121-1.202-.684-2.316-1.58-3.126-.896-.811-2.061-1.26-3.27-1.26-1.207 0-2.372.449-3.268 1.26-.896.81-1.46 1.924-1.58 3.127v4.873h-2.088v-.432c-.048-1.245-.575-2.423-1.473-3.287-.898-.864-2.095-1.347-3.341-1.347s-2.444.482-3.341 1.347c-.898.864-1.426 2.042-1.473 3.287v4.24l-1.044 1.044H20c-1.57.002-3.077.626-4.187 1.737-1.11 1.11-1.736 2.616-1.738 4.187v1.08h2.994v2.088h-5.931c-1.52.073-2.953.729-4.003 1.83-1.049 1.102-1.634 2.565-1.634 4.087 0 1.521.585 2.985 1.634 4.086 1.05 1.102 2.483 1.757 4.003 1.831h8.96v2.123z"/>
    <path fill="#fff" d="M22.054 35.027c-1.456 0-2.852-.579-3.882-1.608-1.03-1.03-1.608-2.426-1.608-3.881 0-1.456.579-2.852 1.608-3.882 1.03-1.03 2.426-1.608 3.882-1.608h1.517c1.222.006 2.407.423 3.363 1.184V20.15c0-1.43.567-2.8 1.578-3.81 1.01-1.01 2.38-1.578 3.81-1.578 1.429 0 2.8.567 3.81 1.578 1.01 1.01 1.578 2.38 1.578 3.81v4.344h-2.088V20.15c0-.875-.348-1.714-.967-2.333-.619-.62-1.458-.967-2.333-.967-.875 0-1.715.348-2.333.967-.62.619-.967 1.458-.967 2.333v8.73c.03.259.042.519.035.78l-.035 1.788h-2.088v-2.43c-.125-.802-.532-1.533-1.149-2.062-.616-.528-1.402-.819-2.214-.82h-1.517c-.902 0-1.767.36-2.405.997-.638.638-.996 1.503-.996 2.405 0 .901.358 1.767.996 2.404.638.638 1.503.996 2.405.996v2.089z"/>
    <path fill="#fff" d="M39.424 42.03c-1.347-.002-2.64-.538-3.592-1.49-.952-.953-1.488-2.245-1.49-3.592v-8.236c0-1.348.536-2.642 1.49-3.596.953-.953 2.246-1.489 3.595-1.489 1.349 0 2.642.536 3.596 1.49.954.953 1.49 2.247 1.49 3.595v8.215c.001.67-.129 1.333-.384 1.952s-.63 1.181-1.102 1.655c-.473.474-1.034.85-1.653 1.107-.618.257-1.28.389-1.95.389zm0-16.297c-.794.002-1.554.318-2.115.879-.56.56-.877 1.32-.879 2.114v8.215c0 .795.316 1.557.878 2.119.562.562 1.324.878 2.12.878.794 0 1.556-.316 2.118-.878.562-.562.878-1.324.878-2.12v-8.228c-.007-.79-.327-1.547-.889-2.103-.561-.557-1.32-.87-2.111-.87v-.006zM79.249 43.331h-8.987v-2.088h8.987c.801.039 1.602-.086 2.354-.365.752-.28 1.439-.71 2.02-1.263.58-.553 1.043-1.219 1.359-1.956.316-.737.478-1.531.478-2.333 0-.803-.162-1.596-.478-2.334-.316-.737-.779-1.402-1.36-1.956-.58-.553-1.267-.983-2.02-1.263-.751-.28-1.552-.404-2.353-.365H73.29V27.32h2.993v-1.114c-.001-1.57-.626-3.076-1.737-4.187-1.11-1.11-2.616-1.735-4.187-1.737h-1.643l-1.044-1.044v-4.24c-.047-1.245-.575-2.423-1.473-3.287-.897-.865-2.095-1.347-3.34-1.347-1.247 0-2.444.482-3.342 1.346-.898.865-1.425 2.043-1.473 3.288v.404h-2.088v-4.873c-.12-1.203-.684-2.317-1.58-3.127-.896-.811-2.06-1.26-3.269-1.26-1.208 0-2.373.449-3.27 1.26-.895.81-1.458 1.924-1.579 3.127v7.497H44.17v-7.47c.102-1.73.847-3.36 2.087-4.57 1.241-1.21 2.889-1.915 4.621-1.975 1.732-.06 3.425.528 4.746 1.65 1.322 1.122 2.177 2.696 2.4 4.415.97-.952 2.2-1.596 3.534-1.851 1.335-.256 2.716-.11 3.97.416 1.252.526 2.322 1.411 3.074 2.543.752 1.133 1.152 2.462 1.151 3.82V18.2h.606c2.125 0 4.163.843 5.666 2.344 1.504 1.501 2.35 3.537 2.354 5.662v1.079h.877c1.08-.045 2.157.129 3.167.51 1.01.383 1.934.965 2.713 1.713.78.748 1.4 1.646 1.824 2.64.424.993.643 2.062.643 3.143 0 1.08-.219 2.15-.643 3.143-.423.994-1.044 1.892-1.823 2.64-.78.747-1.703 1.33-2.714 1.712-1.01.382-2.088.556-3.167.51l-.007.035z"/>
    <path fill="#fff" d="M68.314 35.027v-2.089c.902 0 1.767-.358 2.405-.996.637-.637.996-1.503.996-2.404 0-.902-.359-1.767-.996-2.405-.638-.638-1.503-.996-2.405-.996h-1.525c-.812 0-1.597.29-2.214.82-.616.528-1.024 1.26-1.148 2.062v2.409h-2.089l-.034-1.79c-.007-.26.005-.52.034-.78V20.15c0-.875-.347-1.714-.966-2.333-.619-.62-1.458-.967-2.333-.967-.876 0-1.715.348-2.334.967-.618.619-.966 1.458-.966 2.333v4.344H52.65V20.15c0-1.43.568-2.8 1.579-3.81 1.01-1.01 2.38-1.578 3.81-1.578 1.429 0 2.8.567 3.81 1.578 1.01 1.01 1.578 2.38 1.578 3.81v5.082c.96-.749 2.144-1.153 3.362-1.149h1.518c1.456 0 2.852.579 3.881 1.608 1.03 1.03 1.608 2.426 1.608 3.881 0 1.456-.578 2.852-1.608 3.882-1.03 1.03-2.425 1.608-3.881 1.608l.007-.035z"/>
    <path fill="#fff" d="M50.937 42.03c-1.347-.002-2.638-.538-3.591-1.49-.953-.953-1.489-2.245-1.49-3.592v-8.236c0-1.348.535-2.642 1.489-3.596.954-.953 2.247-1.489 3.596-1.489 1.349 0 2.642.536 3.596 1.49.953.953 1.49 2.247 1.49 3.595v8.215c.001.67-.13 1.333-.384 1.952-.255.619-.63 1.181-1.102 1.655-.473.474-1.035.85-1.653 1.107-.618.257-1.281.389-1.95.389zm0-16.297c-.793.002-1.553.318-2.114.879-.561.56-.877 1.32-.88 2.114v8.215c.003.793.319 1.554.88 2.114.56.562 1.321.877 2.114.88.794-.003 1.554-.319 2.115-.88.561-.56.877-1.32.879-2.114v-8.229c-.008-.79-.326-1.544-.886-2.1-.56-.557-1.318-.87-2.108-.872v-.007zM45.947 51.991h-1.504c-2.416-2.415-6.71-4.037-10.686-4.037H17.05c-1.4-.002-2.743-.56-3.734-1.55-.99-.99-1.547-2.333-1.55-3.734h2.09c0 .847.338 1.658.937 2.257.599.6 1.41.936 2.257.938h16.708c4.144.02 8.163 1.418 11.424 3.975 3.263-2.558 7.285-3.957 11.43-3.975H73.32c.847-.002 1.659-.339 2.258-.938s.936-1.41.938-2.257h2.088c-.002 1.4-.559 2.744-1.55 3.734-.99.99-2.333 1.548-3.734 1.55H56.612c-3.982.007-8.278 1.643-10.665 4.037zM22.722 84.119c-2.523-.004-4.988-.756-7.084-2.161-2.095-1.405-3.728-3.4-4.69-5.731-.963-2.332-1.213-4.897-.718-7.371.495-2.474 1.712-4.746 3.497-6.528 1.786-1.783 4.06-2.996 6.534-3.487 2.475-.49 5.04-.236 7.37.73s4.322 2.602 5.723 4.7c1.401 2.098 2.15 4.564 2.15 7.087-.004 3.387-1.353 6.634-3.75 9.026-2.396 2.393-5.645 3.736-9.032 3.735zm0-23.433c-2.11.004-4.171.634-5.923 1.809-1.753 1.175-3.117 2.843-3.922 4.794-.804 1.95-1.013 4.095-.599 6.164.415 2.069 1.433 3.968 2.926 5.459 1.493 1.49 3.395 2.504 5.465 2.915 2.07.41 4.214.197 6.163-.611 1.949-.809 3.614-2.176 4.786-3.931 1.171-1.754 1.797-3.817 1.797-5.927-.004-2.833-1.132-5.548-3.137-7.55-2.005-2-4.723-3.124-7.556-3.122z"/>
    <path fill="#fff" d="M22.723 88.052c-3.304 0-6.534-.98-9.282-2.816-2.748-1.836-4.889-4.445-6.154-7.498-1.264-3.053-1.595-6.412-.95-9.653.644-3.241 2.236-6.218 4.572-8.555 2.337-2.336 5.314-3.928 8.555-4.572 3.24-.645 6.6-.314 9.653.95 3.053 1.265 5.662 3.407 7.498 6.154 1.836 2.748 2.816 5.978 2.816 9.282 0 4.431-1.76 8.681-4.894 11.815-3.133 3.133-7.383 4.893-11.814 4.893zm0-31.327c-2.891 0-5.718.858-8.122 2.464-2.404 1.606-4.278 3.89-5.384 6.56-1.107 2.672-1.396 5.612-.832 8.448.564 2.835 1.956 5.44 4.001 7.485 2.045 2.044 4.65 3.437 7.485 4 2.836.565 5.776.275 8.447-.831 2.671-1.107 4.954-2.98 6.56-5.385 1.607-2.404 2.465-5.23 2.465-8.122-.006-3.873-1.549-7.586-4.29-10.323-2.74-2.738-6.456-4.275-10.33-4.275v-.02zM66.358 84.119c-2.524 0-4.99-.749-7.09-2.15-2.098-1.403-3.733-3.396-4.699-5.728-.966-2.331-1.219-4.897-.726-7.372.492-2.476 1.707-4.75 3.492-6.534 1.785-1.785 4.058-3 6.534-3.492 2.475-.493 5.04-.24 7.372.726s4.325 2.601 5.727 4.7c1.402 2.098 2.15 4.565 2.15 7.09-.003 3.382-1.349 6.626-3.74 9.018-2.393 2.392-5.637 3.738-9.02 3.742zm0-23.433c-2.11 0-4.174.626-5.929 1.799-1.755 1.172-3.123 2.84-3.93 4.79-.808 1.95-1.02 4.095-.608 6.165.412 2.07 1.428 3.972 2.92 5.464 1.493 1.493 3.395 2.51 5.465 2.921 2.07.412 4.216.2 6.166-.607 1.95-.808 3.617-2.176 4.79-3.93 1.172-1.756 1.798-3.82 1.798-5.93-.004-2.83-1.13-5.541-3.13-7.542-2-2-4.713-3.126-7.542-3.13z"/>
    <path fill="#fff" d="M66.358 88.052c-3.304 0-6.535-.98-9.282-2.816-2.748-1.836-4.89-4.445-6.154-7.498-1.264-3.053-1.595-6.412-.95-9.653.644-3.241 2.235-6.218 4.572-8.555 2.337-2.336 5.314-3.928 8.555-4.572 3.24-.645 6.6-.314 9.653.95 3.053 1.265 5.662 3.407 7.498 6.154 1.836 2.748 2.816 5.978 2.816 9.282 0 4.431-1.76 8.681-4.894 11.815-3.133 3.133-7.383 4.893-11.814 4.893zm0-31.327c-2.891 0-5.718.858-8.122 2.464-2.404 1.606-4.278 3.89-5.384 6.56-1.107 2.672-1.396 5.612-.832 8.448.564 2.835 1.956 5.44 4 7.485 2.045 2.044 4.65 3.437 7.486 4 2.836.565 5.775.275 8.447-.831 2.67-1.107 4.954-2.98 6.56-5.385 1.607-2.404 2.464-5.23 2.464-8.122-.005-3.873-1.548-7.586-4.289-10.323-2.741-2.738-6.456-4.275-10.33-4.275v-.02z"/>
    <path fill="#fff" d="M37.119 65.19c-.22 0-.435-.069-.614-.198s-.312-.31-.38-.52c-.07-.21-.07-.435-.003-.645.068-.21.2-.393.377-.523 2.363-1.727 5.208-2.669 8.134-2.692 2.927-.024 5.787.871 8.177 2.56.231.16.389.406.438.683.05.276-.013.561-.173.792-.16.231-.407.388-.683.438-.277.05-.562-.013-.793-.173-2.033-1.435-4.464-2.196-6.952-2.176-2.487.02-4.906.82-6.916 2.287-.181.118-.395.177-.612.167zM38.42 70.6c-.196.001-.39-.053-.557-.156-.168-.104-.303-.253-.39-.43-.086-.176-.12-.374-.1-.57.021-.196.097-.382.22-.536.85-1.078 1.936-1.948 3.174-2.543 1.237-.596 2.594-.902 3.968-.896 1.283-.034 2.558.22 3.73.74 1.174.522 2.215 1.299 3.05 2.274.185.21.278.486.26.765-.018.28-.147.54-.357.725-.21.184-.486.278-.765.26-.28-.019-.54-.147-.725-.358-.633-.746-1.426-1.34-2.32-1.738-.895-.398-1.867-.589-2.845-.559-1.06-.003-2.105.234-3.058.694-.954.46-1.791 1.129-2.449 1.959-.102.12-.23.216-.375.28-.145.064-.302.094-.46.089zM85.21 74.624h-2.967c-.276 0-.542-.11-.738-.306-.196-.195-.306-.461-.306-.738 0-.277.11-.543.306-.739.196-.195.462-.305.738-.305h2.966c.438 0 .857-.174 1.167-.484.31-.309.483-.729.483-1.166 0-.438-.174-.857-.483-1.167-.31-.31-.73-.483-1.167-.483h-2.966c-.276 0-.542-.11-.738-.306-.196-.196-.306-.461-.306-.738 0-.277.11-.543.306-.739.196-.196.462-.306.738-.306h2.966c.491 0 .977.097 1.43.285.454.188.866.463 1.214.81.347.347.622.76.81 1.213.188.454.284.94.284 1.43 0 .492-.096.978-.284 1.431-.188.454-.463.866-.81 1.213-.348.347-.76.623-1.213.81-.454.188-.94.285-1.43.285zM6.697 74.624H3.738c-.991 0-1.942-.394-2.643-1.095C.394 72.83 0 71.877 0 70.886c0-.992.394-1.942 1.095-2.644.701-.7 1.652-1.095 2.643-1.095h2.959c.277 0 .543.11.738.306.196.196.306.462.306.739 0 .277-.11.542-.306.738-.195.196-.461.306-.738.306H3.738c-.437 0-.857.174-1.166.483-.31.31-.484.73-.484 1.167 0 .437.174.857.484 1.166.31.31.729.484 1.166.484h2.959c.277 0 .543.11.738.305.196.196.306.462.306.739 0 .277-.11.543-.306.738-.195.196-.461.306-.738.306z"/>
</svg>
