<svg xmlns="http://www.w3.org/2000/svg" width="90" height="90" fill="none" viewBox="0 0 90 90">
    <path fill="#fff" fill-rule="evenodd" d="M47.029 15.433c0 1.073-.87 1.942-1.943 1.942s-1.943-.87-1.943-1.942V4.943c0-1.073.87-1.943 1.943-1.943s1.943.87 1.943 1.943v10.49zm-3.303 7.285c6.165-.411 12.222 1.772 16.707 6.022 4.509 4.24 7.103 10.129 7.187 16.318-.177 8.258-4.676 15.817-11.85 19.911v10.976c0 5.9-4.783 10.684-10.684 10.684-5.9 0-10.684-4.783-10.684-10.684V64.872c-6.8-3.788-11.947-11.461-11.85-19.911.131-11.82 9.375-21.53 21.174-22.243zm-5.148 54.004c.506 3.244 3.228 5.682 6.508 5.828 3.28-.146 6.003-2.584 6.508-5.828H38.578zm-.29-3.885h13.597v-2.914H38.287v2.914zm13.597-9.13c-.024-.718.35-1.39.971-1.748 6.629-3.012 10.883-9.621 10.88-16.901-.16-10.202-8.447-18.403-18.65-18.455h-1.165c-9.725.702-17.308 8.706-17.484 18.455-.066 7.274 4.215 13.886 10.879 16.803.637.391 1.01 1.1.971 1.846v2.331h13.598v-2.331zM16.433 41.755H5.943c-1.073 0-1.943.87-1.943 1.943s.87 1.942 1.943 1.942h10.49c1.073 0 1.942-.87 1.942-1.942 0-1.073-.87-1.943-1.942-1.943zm57.307 0h10.49c1.072 0 1.942.87 1.942 1.943s-.87 1.942-1.942 1.942H73.74c-1.073 0-1.943-.87-1.943-1.942 0-1.073.87-1.943 1.943-1.943zM16.044 17.763l7.48 7.382c.688.751 1.856.802 2.607.112.039-.035.076-.073.112-.112.75-.689.801-1.856.112-2.607-.036-.04-.073-.077-.112-.112l-7.48-7.382c-.643-.859-1.86-1.032-2.719-.389-.858.644-1.032 1.862-.388 2.72.11.147.24.278.388.388zm49.245 7.965c-.512-.007-1.001-.216-1.36-.583-.039-.035-.076-.073-.112-.112-.69-.75-.639-1.918.112-2.607l7.48-7.382c.11-.147.24-.278.388-.389.858-.643 2.076-.47 2.72.389.643.858.47 2.076-.39 2.72l-7.478 7.381c-.359.367-.848.576-1.36.583z" clip-rule="evenodd" />
</svg>
