<svg xmlns="http://www.w3.org/2000/svg" width="90" height="90" fill="none" viewBox="0 0 90 90">
    <g clip-path="url(#prefix__clip0)">
        <path fill="#fff" fill-rule="evenodd" d="M8.344 19.703H73.84c4.608 0 8.344 3.736 8.344 8.344v37.441c0 4.608-3.736 8.344-8.344 8.344H53.607V85.93h4.276c1.152 0 2.086.934 2.086 2.086 0 1.152-.934 2.086-2.086 2.086H24.301c-1.152 0-2.086-.934-2.086-2.086 0-1.152.933-2.086 2.086-2.086h4.276V73.832H8.344C3.736 73.832 0 70.096 0 65.488V28.047c0-4.608 3.736-8.344 8.344-8.344zM32.748 85.93h16.687V73.832H32.748V85.93zM78.012 65.7c.002-.07.002-.141 0-.212V28.047c0-2.304-1.868-4.172-4.172-4.172H8.344c-2.305 0-4.172 1.868-4.172 4.172v37.441c-.059 2.246 1.715 4.114 3.96 4.172.07.002.141.002.212 0H73.84c2.246.059 4.114-1.715 4.172-3.96zM49.34 53.303l-8.651-8.651 3.845-3.845-13.938-3.364 2.403 14.898 3.845-3.845 8.65 8.651 3.846-3.844zm-1.923-9.613l-.96.962 5.767 5.767c1.592 1.593 1.592 4.175 0 5.767l-3.845 3.845c-1.593 1.593-4.175 1.593-5.768 0l-5.767-5.767-.961.961c-1.083 1.083-2.681 1.468-4.139.997-1.457-.471-2.527-1.72-2.771-3.231l-2.403-14.9c-.217-1.347.254-2.714 1.255-3.64 1.002-.928 2.401-1.293 3.728-.973l13.938 3.364c1.434.347 2.569 1.44 2.968 2.86.4 1.42.002 2.945-1.042 3.988z" clip-rule="evenodd"/>
    </g>
    <defs>
        <clipPath id="prefix__clip0">
            <path fill="#fff" d="M0 0H90V90H0z"/>
        </clipPath>
    </defs>
</svg>
