<svg xmlns="http://www.w3.org/2000/svg" width="53" height="96" fill="none" viewBox="0 0 53 96">
    <path fill="#fff" d="M32.725 10.799H15.328v2.088h17.397V10.8z"/>
    <path fill="#fff" d="M52.163 93.606V67.382c-.003-1.157-.422-2.274-1.18-3.148-.757-.874-1.804-1.446-2.948-1.613V11.739c-.002-1.782-.709-3.49-1.966-4.753C44.81 5.723 43.105 5.009 41.324 5H6.739c-1.787.002-3.5.712-4.763 1.976C.712 8.239.002 9.952 0 11.739V77.58c.002 1.7.678 3.33 1.88 4.531 1.202 1.203 2.832 1.879 4.532 1.88h2.527l4.873 10.067.94.591h36.366l1.045-1.044zM39.68 55.401h-.098c-.999.002-1.973.316-2.784.898-.068-.393-.185-.777-.348-1.141l.361.362 1.476-1.476-3.48-3.48c2.229-2.576 3.456-5.868 3.456-9.274 0-3.405-1.227-6.697-3.456-9.272l3.48-3.544-1.475-1.476-3.516 3.523c-2.305-1.996-5.194-3.193-8.235-3.411v-4.978h-2.089v4.97c-3.037.222-5.92 1.419-8.221 3.412l-3.51-3.516-1.496 1.476 3.516 3.523c-2.225 2.58-3.45 5.873-3.45 9.28 0 3.406 1.225 6.7 3.45 9.28l-3.481 3.48 1.476 1.476 3.48-3.48c1.398 1.191 3.012 2.101 4.755 2.68v14.333h-5.98l-1.308-2.283c-.56-.974-1.418-1.742-2.449-2.19-1.03-.447-2.177-.55-3.27-.293-1.095.256-2.076.858-2.8 1.717-.725.859-1.152 1.928-1.22 3.049h-.377V17.83h43.858v44.916c-.52.148-1.013.383-1.455.696v-3.223c-.002-1.276-.509-2.5-1.41-3.402-.902-.903-2.124-1.412-3.4-1.416zM19.492 43.77v8.73c-2.587-1.042-4.736-2.943-6.086-5.384-1.349-2.441-1.815-5.273-1.32-8.018.494-2.744 1.92-5.235 4.036-7.051 2.117-1.816 4.795-2.848 7.583-2.92 2.788-.073 5.516.818 7.724 2.522 2.208 1.704 3.761 4.117 4.398 6.832.637 2.715.318 5.567-.902 8.075-1.22 2.508-3.268 4.518-5.798 5.693v-8.48c0-1.277-.508-2.502-1.411-3.406-.903-.903-2.129-1.41-3.406-1.41-1.278 0-2.503.507-3.407 1.41-.903.904-1.41 2.13-1.41 3.407zm13.819 8.25l.696.695c-.368-.167-.757-.286-1.156-.355.168-.104.314-.215.46-.34zM19.492 71.134v7.379c.003.033-.002.067-.014.098-.012.032-.03.06-.055.083-.056.048-.128.076-.202.076-.043 0-.085-.011-.121-.035-.036-.024-.065-.057-.081-.097l-4.31-7.504h4.783zM6.74 7.088h34.585c1.228.01 2.402.503 3.268 1.374.866.871 1.352 2.049 1.354 3.277v4.003H2.088v-4.003c.002-1.233.493-2.415 1.365-3.286.871-.872 2.053-1.363 3.286-1.365zm-.327 74.816c-1.148-.002-2.247-.459-3.058-1.27-.81-.813-1.266-1.913-1.266-3.06v-6.44h.697c.06.168.13.332.208.495l4.964 10.31-1.545-.035zm43.662 10.658H15.385L4.873 70.69c-.334-.728-.377-1.557-.119-2.315.258-.759.797-1.39 1.505-1.763.71-.374 1.534-.462 2.306-.246.771.216 1.43.72 1.843 1.407l6.822 11.876c.2.359.494.657.849.864.355.206.759.315 1.17.313.594.001 1.168-.22 1.608-.62.235-.22.42-.489.545-.786.125-.297.186-.618.179-.94v-34.71c0-.359.07-.713.207-1.045.138-.33.339-.631.592-.885.253-.253.554-.454.885-.591.331-.138.686-.208 1.045-.208.358 0 .713.07 1.044.208.331.137.632.338.885.591.254.254.455.554.592.885.137.332.208.686.208 1.045v27.776h2.088V57.121c.011-.718.304-1.404.816-1.908s1.201-.786 1.92-.786h.16c.36-.007.717.058 1.052.19.335.132.64.329.9.579.258.25.465.55.608.88.143.33.22.685.225 1.045v16.422h2.088V60.22c.002-.723.29-1.416.801-1.928.512-.511 1.205-.8 1.928-.801h.056c.723.002 1.416.29 1.927.801.512.512.8 1.205.802 1.928v15.65h2.088v-8.487c.002-.723.29-1.416.801-1.927.512-.512 1.205-.8 1.928-.802h.111c.724.002 1.417.29 1.928.802.511.511.8 1.204.801 1.927l.007 25.18z"/>
    <path fill="#fff" d="M9.07 40.218H4.9v2.088h4.17v-2.088zM43.154 40.218h-4.17v2.088h4.17v-2.088zM18.678 24.711l-1.946.76.789 2.017 1.945-.76-.788-2.017zM9.499 45.819l-2.017.788.761 1.945 2.016-.788-.76-1.945zM39.815 33.962l-2.016.788.76 1.945 2.016-.788-.76-1.945zM16.98 54.757l-.869 1.983 1.913.838.869-1.984-1.913-.837zM30.036 24.938l-.868 1.983 1.913.837.868-1.983-1.913-.837zM8.543 33.336l-.838 1.913 1.983.868.838-1.912-1.983-.869zM38.365 46.398l-.838 1.912 1.983.869.838-1.913-1.983-.868z"/>
</svg>
