<svg xmlns="http://www.w3.org/2000/svg" width="90" height="90" fill="none" viewBox="0 0 90 90">
    <path fill="#fff" fill-rule="evenodd" d="M72.32 18.374c.14-.004.279-.003.418.002 3.345.137 5.946 2.96 5.81 6.306v47.354c0 3.605-2.622 6.964-6.227 6.964H19.23c-3.604 0-6.226-3.36-6.226-6.964V24.682c-.006-.139-.007-.278-.003-.417.094-3.347 2.883-5.985 6.23-5.892h5.243v-4.506c0-1.802 1.72-2.867 3.523-2.867h4.834c1.802 0 3.113 1.065 3.113 2.867v4.506h19.663v-4.506c0-1.802 1.31-2.867 3.113-2.867h4.833c1.803 0 3.523 1.065 3.523 2.867v4.507h5.244zm-8.52-4.097h-5.08v9.012h5.08v-9.012zm-31.132 0h-4.67v9.012h4.67v-9.012zM72.32 75.723c1.802 0 2.95-1.885 2.95-3.687v-34.82H16.281v34.82c0 1.802 1.147 3.687 2.95 3.687H72.32zm2.95-41.783v-9.258c.012-.142.014-.284.005-.427-.097-1.535-1.42-2.701-2.955-2.604h-5.244v1.802c0 1.802-1.72 3.113-3.523 3.113h-4.833c-.056.002-.111.002-.166 0-1.674-.046-2.993-1.44-2.947-3.113v-1.802H35.945v1.968c-.046 1.674-1.44 2.993-3.113 2.947h-4.834c-1.803 0-3.523-1.31-3.523-3.113v-1.802H19.23c-.142-.01-.284-.007-.426.006-1.532.138-2.662 1.493-2.523 3.025v9.258H75.27zM35.984 67.776l1.475-8.193-5.98-5.735c-.428-.462-.584-1.115-.41-1.72.22-.56.718-.964 1.31-1.065l8.193-1.23 3.687-7.455c.395-.814 1.375-1.155 2.19-.76.33.16.599.428.76.76l3.686 7.456 8.193 1.229c.593.101 1.09.505 1.31 1.065.174.605.02 1.258-.409 1.72l-5.98 5.735 1.474 8.193c.086.6-.166 1.199-.655 1.556-.28.219-.628.335-.983.328l-.738-.164-7.373-3.85-7.374 3.85c-.801.42-1.792.11-2.211-.692-.165-.316-.223-.677-.165-1.028zm7.128-15.73c-.196.482-.632.824-1.147.901l-5.817.82 4.178 4.014c.39.385.572.933.492 1.474l-.983 5.817 5.161-2.785.738-.164.737.164 5.161 2.785-.983-5.817c-.08-.541.103-1.089.492-1.474l4.178-4.015-5.817-.819c-.514-.077-.95-.42-1.147-.901l-2.621-5.244-2.622 5.244z" clip-rule="evenodd"/>
</svg>
