<svg xmlns="http://www.w3.org/2000/svg" width="86" height="96" fill="none" viewBox="0 0 86 96">
    <path fill="#fff" d="M62.43 92.456H28.195c-.277 0-.543-.11-.739-.306-.195-.196-.305-.461-.305-.738v-.745c.008-3.397-1.29-6.668-3.627-9.133-1.56-1.163-2.827-2.673-3.702-4.41-.875-1.739-1.333-3.656-1.339-5.601v-14.02c.002-1.34.535-2.625 1.483-3.572.947-.948 2.232-1.48 3.572-1.483h21.03c.89.001 1.764.237 2.532.685.77.447 1.407 1.09 1.847 1.863.437.735.673 1.573.684 2.428.011.856-.203 1.699-.621 2.445-1.138 2.024-2.794 3.709-4.798 4.882-2.004 1.173-4.283 1.792-6.605 1.794H34.71c2.395 1.998 5.263 5.66 5.263 11.737 0 .277-.11.543-.306.739-.196.196-.462.306-.739.306-.276 0-.542-.11-.738-.306-.196-.196-.306-.462-.306-.739 0-8.834-7.073-11.785-7.15-11.834-.224-.091-.41-.257-.525-.47-.115-.213-.153-.459-.107-.696.046-.238.173-.452.36-.606.186-.155.42-.24.663-.24h6.502c1.946.002 3.858-.513 5.541-1.491 1.683-.979 3.076-2.386 4.038-4.078.247-.433.373-.924.366-1.423-.007-.498-.148-.985-.408-1.41-.261-.456-.639-.835-1.093-1.097-.455-.263-.971-.401-1.497-.4H23.537c-.787 0-1.541.312-2.098.868-.556.556-.868 1.31-.868 2.097v14.02c.01 1.629.4 3.232 1.14 4.683.74 1.45 1.808 2.708 3.12 3.672.05.037.097.08.14.125 2.673 2.788 4.195 6.483 4.26 10.345h32.155v-5.618c0-.277.11-.543.306-.739.196-.195.462-.305.739-.305.277 0 .542.11.738.305.196.196.306.462.306.739v6.662c.002.139-.022.277-.074.406-.05.13-.127.247-.225.346-.097.1-.213.178-.341.232-.128.053-.266.081-.404.081z"/>
    <path fill="#fff" d="M57.543 86.385h-4.42c-.278 0-.543-.11-.739-.305-.196-.196-.306-.462-.306-.739 0-.277.11-.542.306-.738.196-.196.461-.306.738-.306h4.428c2.095.019 4.124-.734 5.7-2.116 1.575-1.381 2.587-3.295 2.842-5.374 1.872-14.425 5.13-40.28 5.987-51.342.086-1.125-.276-2.238-1.008-3.096-.732-.858-1.774-1.392-2.898-1.485h-.132c-1.064-.099-2.125.22-2.96.886-.835.668-1.379 1.633-1.516 2.693l-2.917 21.156c-.038.277-.184.527-.407.696-.223.17-.503.243-.78.205-.277-.038-.528-.184-.697-.406-.169-.223-.242-.504-.205-.78l2.917-21.15c.204-1.602 1.026-3.062 2.29-4.068 1.263-1.006 2.87-1.48 4.477-1.32h.132c1.669.142 3.214.938 4.298 2.215 1.083 1.277 1.618 2.93 1.487 4.6-.85 11.118-4.121 37.043-6.008 51.474-.318 2.582-1.575 4.958-3.531 6.673-1.957 1.715-4.476 2.65-7.078 2.627zM28.194 54.106c-.216-.001-.426-.068-.601-.193-.176-.124-.309-.3-.38-.503L15.906 21.867c-.624-1.77-.52-3.715.29-5.408.81-1.692 2.26-2.994 4.03-3.618 1.769-.624 3.714-.52 5.407.29 1.692.81 2.994 2.26 3.618 4.03l9.892 27.087c.07.255.041.526-.081.76-.122.234-.328.413-.577.5-.248.089-.521.08-.763-.025-.242-.105-.436-.297-.542-.539l-9.9-27.087c-.216-.618-.552-1.187-.989-1.675-.437-.488-.965-.886-1.555-1.17-.59-.283-1.23-.448-1.885-.484-.654-.037-1.308.056-1.926.273-.618.216-1.187.553-1.675.99-.489.436-.886.965-1.17 1.555-.283.59-.448 1.23-.484 1.884-.037.654.056 1.309.273 1.927l11.312 31.55c.056.157.073.325.05.49-.023.165-.085.323-.18.46-.097.136-.224.247-.372.324-.148.077-.313.117-.48.118l-.006.007z"/>
    <path fill="#fff" d="M54.306 71.982c-1.737-.001-3.404-.69-4.635-1.917-1.231-1.226-1.927-2.889-1.937-4.626V47.694c.004-1.756.704-3.44 1.946-4.68 1.242-1.241 2.926-1.939 4.682-1.94 1.727.001 3.384.688 4.605 1.91 1.222 1.221 1.909 2.878 1.91 4.605v17.85c-.009 1.737-.705 3.4-1.936 4.626-1.231 1.227-2.897 1.916-4.635 1.917zm.056-28.82c-1.202.002-2.353.48-3.203 1.33-.85.849-1.327 2-1.33 3.202v17.745c.046 1.157.538 2.252 1.373 3.055.836.803 1.95 1.251 3.108 1.251 1.158 0 2.271-.448 3.107-1.251.835-.803 1.327-1.898 1.372-3.055v-17.85c-.002-1.173-.469-2.298-1.299-3.128-.83-.83-1.955-1.297-3.128-1.3z"/>
    <path fill="#fff" d="M43.26 71.982c-1.665-.002-3.266-.635-4.482-1.77-1.217-1.135-1.959-2.689-2.077-4.349-.018-.277.074-.55.257-.758.183-.21.441-.337.718-.356.277-.018.55.074.759.257.209.183.336.441.355.718.105 1.137.64 2.192 1.497 2.948.856.756 1.968 1.156 3.11 1.12 1.142-.037 2.226-.507 3.033-1.316.806-.81 1.273-1.896 1.305-3.037V47.694c-.001-1.202-.48-2.353-1.329-3.203-.85-.85-2.001-1.328-3.203-1.33-1.173.002-2.298.47-3.128 1.3-.83.83-1.297 1.955-1.299 3.128v5.57c0 .276-.11.542-.306.738-.196.196-.461.306-.738.306-.277 0-.543-.11-.739-.306-.196-.196-.306-.462-.306-.739V47.59c.002-1.727.69-3.384 1.911-4.605 1.222-1.222 2.878-1.909 4.605-1.91 1.755.003 3.437.702 4.678 1.942 1.24 1.241 1.94 2.923 1.943 4.678v17.745c-.01 1.736-.704 3.398-1.934 4.624-1.23 1.226-2.895 1.916-4.63 1.92zM48.467 26.9h-2.089c-.004-3.29-1.312-6.443-3.637-8.769-2.326-2.325-5.48-3.633-8.768-3.637v-2.089c3.289-.003 6.442-1.311 8.768-3.637C45.066 6.442 46.374 3.289 46.378 0h2.089c.003 3.289 1.311 6.442 3.637 8.768 2.326 2.326 5.479 3.634 8.768 3.637v2.089c-3.289.004-6.442 1.312-8.768 3.637-2.326 2.326-3.634 5.48-3.637 8.768zm-9.092-13.45c1.812.733 3.459 1.823 4.841 3.206 1.383 1.382 2.473 3.029 3.206 4.841.734-1.812 1.824-3.459 3.206-4.841 1.383-1.383 3.03-2.473 4.842-3.206-1.813-.733-3.46-1.824-4.842-3.206-1.382-1.383-2.472-3.03-3.206-4.842-.733 1.813-1.823 3.46-3.206 4.842-1.382 1.382-3.029 2.473-4.841 3.206zM75.218 61.484H73.13c-.002-1.68-.67-3.29-1.858-4.477-1.187-1.188-2.797-1.856-4.477-1.858v-2.088c1.68-.002 3.29-.67 4.477-1.858 1.188-1.188 1.856-2.798 1.858-4.477h2.088c.002 1.68.67 3.29 1.858 4.477 1.188 1.188 2.798 1.856 4.477 1.858v2.088c-1.68.002-3.29.67-4.477 1.858-1.188 1.187-1.856 2.797-1.858 4.477zm-4.365-7.38c1.398.773 2.549 1.924 3.321 3.321.77-1.396 1.92-2.547 3.314-3.32-1.397-.773-2.548-1.924-3.32-3.32-.771 1.395-1.92 2.546-3.315 3.32zM16.534 46.42h-2.089c0-.877-.348-1.718-.968-2.339-.62-.62-1.461-.968-2.338-.968v-2.088c.877 0 1.718-.349 2.338-.969.62-.62.968-1.461.968-2.338h2.089c0 .877.348 1.718.968 2.338.62.62 1.462.969 2.339.969v2.088c-.877 0-1.719.348-2.339.968-.62.62-.968 1.462-.968 2.339zm-2.207-4.351c.444.326.836.718 1.163 1.162.326-.444.718-.836 1.162-1.162-.444-.327-.836-.719-1.162-1.163-.326.447-.718.841-1.163 1.17v-.007zM8.395 61.136H6.307c0-.878-.349-1.719-.969-2.339-.62-.62-1.461-.968-2.338-.968V55.74c.877 0 1.718-.348 2.338-.968.62-.62.969-1.461.969-2.338h2.088c0 .877.349 1.718.969 2.338.62.62 1.46.968 2.338.968v2.089c-.877 0-1.718.348-2.338.968-.62.62-.969 1.462-.969 2.339zm-2.207-4.352c.444.327.836.719 1.163 1.163.326-.444.718-.836 1.163-1.163-.445-.326-.837-.718-1.163-1.162-.326.444-.718.836-1.163 1.163z"/>
</svg>
