<svg width="101" height="44" viewBox="0 0 101 44" fill="none" xmlns="http://www.w3.org/2000/svg">
<g clip-path="url(#clip0)">
<path fill-rule="evenodd" clip-rule="evenodd" d="M0 1.84837L1.78235 0L5.61111 3.89477V6.53529L1.78235 10.4301L0 8.5817V1.84837ZM23.3686 0L25.151 1.84837V25.349L23.3686 27.1974L19.5399 22.1804V3.89477L23.3686 0ZM67.0033 4.48887L65.2209 2.6405L61.3922 6.53527V16.7673L65.2209 20.5961L67.0033 18.8137V4.48887ZM67.0033 24.4248L65.2209 22.5764L61.3922 26.4712V36.7032L65.2209 40.532L67.0033 38.7496V24.4248ZM25.151 31.0261L23.3686 29.1777L19.5399 33.0065V39.2777L23.3686 43.1725L25.151 41.3241V31.0261ZM99.2177 0L101 1.84837V18.8137L99.2177 20.5961L95.3889 16.7673V3.89477L99.2177 0ZM101 24.4248L99.2177 22.5764L95.3889 26.4712V36.7032L99.2177 40.532L101 38.7496V24.4248ZM43.8326 2.6405L42.0503 4.48887V18.8137L43.8326 20.5961L47.7274 16.7673V6.53527L43.8326 2.6405ZM74.4628 0L72.6804 1.84837V18.8137L74.4628 20.5961L78.2915 16.7673V3.89477L74.4628 0ZM84.2987 24.4248L86.0811 22.5764L89.9098 26.4712V31.7522L86.0811 35.581L84.2987 33.7986V24.4248ZM43.8326 22.5764L42.0503 24.4248V38.7496L43.8326 40.532L47.6614 36.7032L47.7274 26.4712L43.8326 22.5764ZM0 14.1927L1.78235 12.3444L5.61111 17.3614V39.2777L1.78235 43.1725L0 41.3241V14.1927ZM15.183 18.5497L9.83597 11.7504L3.69675 10.2321L2.4425 11.4863L10.0721 21.1629L10.034 21.1902L15.3811 27.9235L21.5203 29.5078L22.7745 28.1876L15.1781 18.5531L15.183 18.5497ZM64.4287 1.78235L62.6464 0H46.4732L44.6248 1.78235L48.4536 5.67712H60.6L64.4287 1.78235ZM62.6464 43.1725L64.4287 41.3902L60.6 37.5614H48.4536L44.6248 41.3902L46.4732 43.1725H62.6464ZM74.3967 22.5764L72.6144 24.4248V38.7496L74.3967 40.532L78.2915 36.7032V26.4712L74.3967 22.5764ZM96.6432 43.1725L98.4915 41.3902L94.5967 37.5614H79.0837L75.1889 41.3902L77.0373 43.1725H96.6432Z" fill="#e74a3b"/>
</g>
<defs>
<clipPath id="clip0">
<rect width="101" height="44" fill="white"/>
</clipPath>
</defs>
</svg>
