<svg xmlns="http://www.w3.org/2000/svg" width="90" height="90" fill="none" viewBox="0 0 90 90">
    <path fill="#fff" d="M73.174 10.913c-4.19 0-7.62 3.309-7.817 7.45-8.125 2.786-21.67 8.202-42.618 8.202h-3.478c-3.473 0-6.423 2.275-7.443 5.412C5.683 33.037 1 38.392 1 44.827c0 6.433 4.683 11.79 10.818 12.849.878 2.698 3.184 4.756 6.022 5.28l3.33 19.697c.64 3.778 3.885 6.521 7.717 6.521 4.768 0 8.391-4.285 7.609-8.981l-2.76-16.56c14.672 1.43 22.74 4.611 31.621 7.656.197 4.142 3.628 7.45 7.817 7.45 4.315 0 7.826-3.51 7.826-7.826V18.74c0-4.315-3.51-7.826-7.826-7.826zm-61.74 41.292c-3.036-1.076-5.216-3.978-5.216-7.379 0-3.4 2.18-6.302 5.217-7.379v14.758zm17.453 31.752c-1.277 0-2.359-.915-2.572-2.174l-3.161-18.694c1.73.007 3.474.054 5.226.144l2.97 17.817c.253 1.523-.919 2.907-2.463 2.907zm2.896-25.73c-3.032-.235-6.062-.357-9.044-.357h-3.478c-1.438 0-2.609-1.17-2.609-2.61V34.392c0-1.438 1.17-2.608 2.609-2.608h3.478c2.982 0 6.012-.123 9.044-.358v26.802zm33.565 7.543c-6.97-2.39-14.685-5.384-28.348-7.028V30.91c13.533-1.628 21.166-4.566 28.348-7.028V65.77zm10.435 5.143c0 1.439-1.17 2.609-2.61 2.609-1.438 0-2.608-1.17-2.608-2.609V18.74c0-1.438 1.17-2.609 2.609-2.609 1.438 0 2.609 1.17 2.609 2.61v52.173z"/>
</svg>
