<svg xmlns="http://www.w3.org/2000/svg" width="76" height="96" fill="none" viewBox="0 0 76 96">
    <path fill="#fff" d="M38.286 79.054c.684-.672 1.11-1.564 1.202-2.518.093-.955-.153-1.912-.694-2.703l-3.37-4.95c6.308-2.861 22.222-9.001 34.996-4.323.2.072.418.082.623.027.205-.055.39-.17.527-.333.138-.162.223-.362.244-.573.02-.212-.023-.425-.127-.61l-9.746-17.404c1.322-.92 2.254-2.297 2.616-3.866.361-1.569.126-3.216-.66-4.62l-3.084-5.493c-.789-1.406-2.073-2.467-3.603-2.975-1.53-.509-3.194-.428-4.667.225l-9.746-17.404c-.104-.186-.263-.336-.455-.43-.193-.092-.409-.124-.62-.091-.21.033-.406.13-.56.278-.154.148-.259.34-.3.55-3.405 17.02-24.331 29.19-24.54 29.314L8.38 45.618c-3.518 2.047-6.168 5.308-7.452 9.17-1.284 3.862-1.114 8.06.479 11.806 1.592 3.746 4.497 6.782 8.169 8.538 3.672 1.756 7.858 2.11 11.773.998l9.475 13.561c1.279 1.834 3.195 3.124 5.374 3.62l.773.174c2.178.5 4.464.17 6.412-.926.405-.228.759-.539 1.036-.912.278-.374.474-.802.576-1.256.102-.454.107-.925.015-1.381-.092-.457-.279-.889-.548-1.268l-6.175-8.688zm-1.218-4.045c.236.337.363.738.363 1.149 0 .411-.127.812-.363 1.149l-4.873-6.809.459-.257s.334-.181.863-.446l3.55 5.214zm-12.469-2.638L10.307 46.927l6.133-3.446 14.293 25.444-6.134 3.446zM56.33 30.644c.556.155 1.076.42 1.529.779.453.358.83.803 1.11 1.309l3.083 5.444c.515.922.68 2 .466 3.034-.215 1.034-.796 1.956-1.635 2.598l-7.33-13.025c.885-.35 1.86-.398 2.777-.14zM42.22 14.869l26.362 46.927c-14.87-3.891-31.89 4.038-35.998 6.133l-14.34-25.5c3.94-2.43 19.568-12.837 23.975-27.56zM7.591 71.682l5.57-3.147c.202-.15.344-.368.398-.614.055-.246.018-.503-.102-.725-.12-.22-.317-.391-.553-.48-.236-.087-.496-.087-.732.002l-6.21 3.48c-.589-.617-1.122-1.285-1.594-1.997l6.565-3.69c.12-.067.225-.157.31-.265.085-.108.148-.231.185-.364.037-.132.048-.27.032-.406-.017-.137-.06-.268-.127-.388s-.157-.225-.265-.31c-.108-.085-.232-.148-.364-.185-.132-.038-.27-.048-.406-.032-.137.016-.269.06-.388.126L3.346 66.37c-.365-.773-.66-1.577-.884-2.402l6.203-3.48c.241-.136.42-.362.494-.63.076-.266.041-.552-.094-.794-.136-.242-.362-.42-.63-.495-.266-.075-.552-.041-.794.095l-5.57 3.146c-.3-2.675.142-5.382 1.28-7.821 1.14-2.44 2.93-4.517 5.174-6.004l14.237 25.374c-2.437 1.15-5.144 1.603-7.822 1.306-2.678-.296-5.221-1.329-7.348-2.983zm35.365 18.253c-.04.17-.118.33-.226.469-.108.138-.245.25-.4.331-1.497.837-3.252 1.085-4.922.697l-.773-.175c-1.675-.381-3.147-1.374-4.128-2.784l-9.14-13.102c.459-.202.904-.424 1.343-.696l5.653-3.174 12.391 17.403c.108.146.183.315.218.493s.03.362-.016.538zM70.226 42.987l-2.36-.696c-.267-.075-.553-.04-.794.095-.242.136-.42.362-.494.629-.075.267-.04.552.095.794.136.241.362.419.629.494l2.36.696c.267.075.552.04.794-.096.241-.135.419-.361.494-.628.074-.267.04-.553-.096-.794-.135-.242-.361-.42-.628-.494zM57.645 25.812c.227 0 .447-.075.628-.212s.312-.329.374-.547l.697-2.59c.036-.132.047-.27.03-.406-.016-.136-.059-.268-.126-.387-.067-.12-.157-.225-.265-.31-.108-.085-.231-.148-.363-.184-.133-.037-.27-.048-.407-.032-.136.017-.268.06-.387.127-.12.067-.225.157-.31.265-.085.108-.147.231-.184.363l-.697 2.59c-.042.155-.049.319-.018.477.03.158.097.307.195.435s.224.232.368.303c.145.072.304.108.465.108zM69.341 30.518c-.136-.233-.357-.405-.616-.479-.26-.074-.538-.045-.776.082l-2.743 1.539c-.242.135-.42.362-.495.628-.037.133-.048.27-.032.407.016.137.06.268.127.388s.157.225.265.31c.108.085.231.148.364.185.266.075.552.041.794-.095l2.715-1.573c.233-.136.405-.357.48-.616.073-.26.044-.538-.083-.776zM74.47 35.83l-6.592.786c-.137.009-.271.044-.395.104-.123.06-.234.144-.325.247-.091.102-.161.222-.206.352-.045.13-.064.267-.056.404.009.137.044.272.104.395.06.124.144.234.247.325.102.092.222.162.352.206.13.045.267.064.404.056h.126l6.592-.787c.277-.033.53-.175.702-.394.172-.22.25-.498.217-.775s-.175-.53-.394-.702c-.22-.172-.498-.25-.775-.217z"/>
    <path fill="#fff" d="M51.728 25.338h.126c.136-.015.269-.058.39-.125.12-.066.226-.157.311-.265.086-.108.149-.232.186-.364.037-.133.048-.271.032-.408l-.697-5.98c-.033-.277-.175-.53-.394-.702-.22-.172-.498-.25-.775-.217s-.53.175-.702.395c-.172.219-.25.498-.217.775l.696 5.98c.033.253.157.486.35.654.191.168.439.26.694.258zM67.288 21.886c-.218-.17-.495-.245-.769-.211-.273.034-.523.175-.693.392l-3.843 4.97c-.084.109-.146.233-.182.365-.036.132-.046.27-.03.407.018.136.062.267.13.386.067.12.158.224.267.308.108.084.232.146.364.182.132.037.27.046.407.03.136-.018.267-.062.386-.13.12-.067.224-.158.308-.266l3.843-4.943c.088-.11.152-.235.19-.37.039-.135.05-.276.032-.415-.018-.139-.063-.273-.134-.394-.07-.121-.164-.227-.276-.31zM65.302 47.316c-.107-.09-.231-.156-.365-.197-.134-.04-.274-.054-.413-.039-.14.015-.274.057-.396.125s-.23.16-.316.27c-.086.11-.15.235-.186.37-.036.135-.045.276-.027.414.02.139.066.272.137.392.071.12.166.225.279.308l5.569 4.358c.107.09.231.156.365.197.134.04.274.054.413.039.14-.015.274-.057.396-.125s.23-.16.316-.27c.086-.11.15-.235.186-.37.036-.135.045-.276.027-.414-.02-.139-.066-.272-.137-.392-.071-.12-.166-.225-.278-.308l-5.57-4.358zM17.568 23.397c.004-.194-.046-.385-.144-.553-.098-.167-.241-.303-.413-.394L1.529 14.319c-.122-.064-.255-.103-.392-.115-.136-.012-.274.003-.405.044-.13.041-.252.107-.358.196-.105.088-.192.195-.255.317-.064.122-.103.255-.115.391-.012.137.003.275.044.405.04.131.107.253.195.358.088.105.196.192.318.256l13.624 7.156-5.465 2.59c-.17.076-.316.196-.424.347-.108.152-.174.33-.19.514-.016.186.017.372.097.54.08.168.203.311.357.416l8.514 6.196c.224.162.504.229.777.185.274-.044.519-.194.681-.419.163-.224.23-.504.186-.777-.044-.274-.195-.519-.42-.681l-7.093-5.2 5.764-2.73c.174-.081.322-.21.428-.37.106-.162.165-.349.17-.541zM71.568 87.067L62.518 83l6.83-1.316c.205-.04.394-.14.542-.288.148-.148.248-.337.287-.542.038-.206.015-.419-.068-.61-.084-.193-.223-.355-.4-.467L52.697 68.946c-.116-.078-.246-.133-.383-.16-.137-.027-.278-.026-.415.002-.136.029-.266.084-.38.164-.116.079-.213.18-.288.298-.075.118-.126.25-.15.387-.022.138-.018.279.014.415.033.135.092.263.174.376.083.113.187.207.307.28l14.82 9.425-7.483 1.441c-.217.042-.416.153-.566.315-.151.163-.246.37-.272.59-.025.22.02.442.13.635.108.193.276.346.478.437l11.995 5.444c.249.094.524.09.77-.012.245-.102.442-.293.552-.536.109-.242.122-.517.035-.768-.086-.252-.265-.46-.5-.585l.034-.027z"/>
</svg>
