<svg xmlns="http://www.w3.org/2000/svg" width="89" height="96" fill="none" viewBox="0 0 89 96">
    <path fill="#fff" d="M54.575 54.052c-5.04 0-10.143-1.476-10.143-4.303 0-2.826 5.102-4.302 10.143-4.302 5.04 0 10.17 1.497 10.17 4.282 0 2.784-5.13 4.323-10.17 4.323zm0-6.523c-5.236 0-8.055 1.573-8.055 2.213 0 .641 2.826 2.214 8.055 2.214 5.228 0 8.082-1.531 8.082-2.227 0-.697-2.847-2.193-8.082-2.193v-.007z"/>
    <path fill="#fff" d="M54.575 58.402c-5.04 0-10.143-1.476-10.143-4.302v-4.372c0-.137.027-.273.08-.4.052-.127.129-.242.225-.339.097-.096.213-.173.34-.226.126-.052.262-.08.399-.08s.273.028.4.08c.126.053.241.13.338.226.097.097.174.213.227.34.052.126.08.262.08.399v4.344c0 .64 2.825 2.214 8.054 2.214 5.228 0 8.082-1.546 8.082-2.193v-4.365c0-.277.11-.543.306-.739.196-.195.461-.305.738-.305.277 0 .543.11.738.305.196.196.306.462.306.739v4.344c0 2.847-5.13 4.33-10.17 4.33zM30.12 54.052c-5.055 0-10.143-1.476-10.143-4.323 0-2.848 5.088-4.282 10.142-4.282 5.055 0 10.15 1.497 10.15 4.282 0 2.784-5.11 4.323-10.15 4.323zm0-6.523c-5.236 0-8.055 1.573-8.055 2.213 0 .641 2.826 2.214 8.054 2.214 5.229 0 8.062-1.531 8.062-2.227 0-.697-2.826-2.193-8.061-2.193v-.007z"/>
    <path fill="#fff" d="M30.12 58.402c-5.04 0-10.143-1.476-10.143-4.302v-4.372c0-.277.11-.543.305-.739.196-.195.462-.305.739-.305.277 0 .542.11.738.305.196.196.306.462.306.739v4.344c0 .64 2.826 2.214 8.054 2.214 5.229 0 8.055-1.574 8.055-2.214v-4.344c0-.277.11-.543.306-.739.196-.195.461-.305.738-.305.277 0 .543.11.739.305.195.196.305.462.305.739v4.344c.007 2.847-5.102 4.33-10.143 4.33zM66.291 42.335c-5.04 0-10.143-1.476-10.143-4.302 0-2.826 5.117-4.316 10.143-4.316 5.027 0 10.143 1.476 10.143 4.302 0 2.826-5.102 4.316-10.143 4.316zm0-6.523c-5.235 0-8.054 1.574-8.054 2.214 0 .64 2.826 2.214 8.054 2.214s8.055-1.574 8.055-2.214c0-.64-2.82-2.22-8.055-2.22v.006z"/>
    <path fill="#fff" d="M66.291 46.686c-5.04 0-10.143-1.476-10.143-4.303v-4.35c0-.277.11-.543.306-.739.196-.196.462-.306.739-.306.277 0 .542.11.738.306.196.196.306.462.306.739v4.343c0 .641 2.826 2.214 8.054 2.214s8.055-1.573 8.055-2.214v-4.343c0-.277.11-.543.306-.739.195-.196.461-.306.738-.306.277 0 .543.11.739.306.195.196.305.462.305.739v4.343c0 2.827-5.102 4.31-10.143 4.31zM41.834 42.336c-5.04 0-10.143-1.476-10.143-4.303 0-2.026 2.618-3.564 7.004-4.114.137-.017.276-.007.41.03.132.037.257.1.366.185.109.085.2.19.268.31s.112.253.129.39c.017.138.006.277-.03.41-.037.133-.1.258-.185.367-.085.108-.19.2-.31.268-.121.068-.254.112-.39.129-3.69.466-5.18 1.628-5.18 2.04 0 .64 2.826 2.213 8.054 2.213 5.229 0 8.055-1.573 8.055-2.214 0-.34-1.211-1.49-4.908-2.005-.277-.038-.527-.184-.697-.407-.169-.222-.242-.503-.205-.78.038-.277.185-.527.407-.696.223-.17.504-.243.78-.205 4.177.585 6.711 2.088 6.711 4.072.014 2.834-5.096 4.31-10.136 4.31z"/>
    <path fill="#fff" d="M41.834 46.686c-5.04 0-10.143-1.476-10.143-4.303v-4.35c0-.138.027-.273.08-.4.052-.127.13-.242.226-.339.097-.097.212-.174.339-.226.127-.053.263-.08.4-.08s.273.027.4.08c.126.052.241.13.338.226.097.097.174.212.226.339.053.127.08.262.08.4v4.343c0 .641 2.826 2.214 8.054 2.214s8.055-1.573 8.055-2.214v-4.343c0-.277.11-.543.306-.739.196-.196.461-.306.738-.306.277 0 .543.11.738.306.196.196.306.462.306.739v4.343c.007 2.827-5.102 4.31-10.143 4.31z"/>
    <path fill="#fff" d="M57.052 40.4h-5.91c-.277 0-.543-.11-.739-.306-.195-.196-.305-.461-.305-.738 0-.277.11-.543.306-.739.195-.195.46-.305.738-.305h5.91c.277 0 .543.11.739.305.195.196.305.462.305.739 0 .277-.11.542-.305.738-.196.196-.462.306-.739.306z"/>
    <path fill="#fff" d="M65.916 60.574H8.657c-.213.002-.422-.061-.598-.182-.176-.12-.311-.292-.387-.49-.076-.2-.09-.418-.037-.625.051-.207.165-.393.326-.534L31.2 38.59c.192-.169.44-.26.696-.258h1.225c.277 0 .543.11.738.306.196.196.306.461.306.738 0 .277-.11.543-.306.739-.195.195-.461.305-.738.305h-.835l-20.83 18.1h53.987l16.444-18.1H75.69c-.277 0-.543-.11-.739-.305-.195-.196-.305-.462-.305-.739 0-.277.11-.542.305-.738.196-.196.462-.306.739-.306h8.549c.202 0 .4.059.57.17.17.11.303.267.385.452.082.185.108.39.076.59-.033.2-.123.386-.259.535L66.675 60.268c-.1.1-.218.178-.349.23-.13.053-.27.079-.41.076z"/>
    <path fill="#fff" d="M65.914 93.725H8.656c-.277 0-.543-.11-.739-.306-.196-.196-.306-.462-.306-.739V59.53c0-.137.027-.273.08-.4.052-.127.13-.242.226-.339.097-.097.212-.173.339-.226.127-.052.262-.08.4-.08.137 0 .272.028.4.08.126.053.241.13.338.226.097.097.174.213.226.34.053.126.08.262.08.399v32.106h55.74L83.2 72.102V39.383c0-.277.11-.543.305-.738.196-.196.462-.306.739-.306.277 0 .542.11.738.306.196.195.306.461.306.738v33.15c-.001.258-.098.506-.272.697L66.68 93.418c-.1.1-.22.18-.352.232-.131.053-.272.078-.414.075z"/>
    <path fill="#fff" d="M65.914 77.15H8.656c-.277 0-.543-.11-.739-.306-.196-.196-.306-.462-.306-.739 0-.276.11-.542.306-.738.196-.196.462-.306.739-.306H65.44l18.03-19.833c.087-.116.197-.213.324-.284.126-.07.266-.115.41-.129.145-.014.29.003.428.048s.264.119.372.216c.108.097.194.215.254.348.059.132.09.275.091.42.001.145-.028.289-.085.422-.058.133-.142.253-.249.351L66.68 76.81c-.097.106-.216.192-.347.25-.132.059-.275.09-.419.09zM41.836 39.655c-1.9 0-3.934-.515-3.934-1.963V7.465c.043-1.014.476-1.971 1.208-2.674.732-.702 1.708-1.094 2.722-1.094 1.015 0 1.99.392 2.722 1.094.733.703 1.165 1.66 1.208 2.674v30.227c.007 1.448-2.026 1.963-3.926 1.963zM39.99 37.31c1.203.344 2.479.344 3.682 0V7.465c-.028-.469-.235-.909-.577-1.23-.342-.322-.794-.501-1.264-.501s-.922.179-1.264.5c-.342.322-.548.762-.577 1.231V37.31z"/>
    <path fill="#fff" d="M38.674 27.834h-22.41c-.276 0-.542-.11-.737-.305-.196-.196-.306-.462-.306-.739V7.91c0-.277.11-.542.306-.738.195-.196.461-.306.738-.306h22.277c.277 0 .542.11.738.306.196.196.306.461.306.738 0 .277-.11.543-.306.739-.196.196-.461.306-.738.306H17.309v16.79h21.372c.277 0 .543.11.738.307.196.195.306.461.306.738 0 .277-.11.543-.306.739-.195.195-.461.305-.738.305h-.007z"/>
    <path fill="#fff" d="M28.35 39.245H1.047c-.2 0-.396-.057-.565-.165-.169-.108-.303-.262-.387-.444-.083-.182-.113-.384-.085-.582.028-.198.113-.384.244-.536L7.82 28.76.254 20.003c-.131-.152-.216-.338-.244-.536-.028-.198.002-.4.085-.582.084-.183.218-.337.387-.444.169-.108.365-.165.565-.165h14.807c.277 0 .543.11.739.306.196.196.306.462.306.739 0 .276-.11.542-.306.738-.196.196-.462.306-.739.306H3.325l6.662 7.713c.171.192.266.44.266.696 0 .257-.095.505-.266.697L3.33 37.156h23.975v-9.823c0-.277.11-.542.306-.738.196-.196.462-.306.738-.306.277 0 .543.11.739.306.196.196.306.461.306.738V38.2c0 .277-.11.543-.306.739-.196.196-.462.306-.739.306z"/>
    <path fill="#fff" d="M28.35 39.244c-.26-.005-.508-.107-.696-.285l-12.106-11.41c-.155-.198-.233-.446-.22-.697.012-.251.116-.49.29-.67.175-.182.409-.294.66-.316.25-.023.5.046.704.193l12.085 11.382c.15.143.256.327.302.529.045.202.03.413-.045.606-.075.194-.205.36-.375.48-.17.118-.37.184-.578.188h-.02zM74.268 26.337c-3.01 0-5.93-1.023-8.28-2.902-2.351-1.879-3.993-4.501-4.656-7.437-.663-2.935-.308-6.009 1.006-8.716 1.315-2.707 3.512-4.886 6.229-6.18.195-.093.413-.123.626-.087.213.037.41.138.562.29.153.154.254.35.29.563.037.212.007.431-.086.626-.718 1.488-1.094 3.117-1.1 4.769-.003 1.472.285 2.93.847 4.292.562 1.36 1.386 2.598 2.427 3.64 1.04 1.041 2.276 1.867 3.636 2.43 1.36.564 2.819.854 4.291.853 1.664-.001 3.305-.377 4.804-1.1.194-.093.413-.123.626-.087.213.037.41.138.562.29.153.154.254.35.29.563.037.213.007.431-.086.626-1.085 2.26-2.785 4.17-4.905 5.508-2.12 1.339-4.575 2.052-7.083 2.06zM67.063 4.541c-1.118 1.013-2.019 2.243-2.647 3.615-.629 1.371-.972 2.856-1.01 4.365-.036 1.508.233 3.009.794 4.41.56 1.4 1.399 2.673 2.466 3.74 1.067 1.067 2.34 1.906 3.74 2.466 1.401.56 2.902.83 4.41.793 1.508-.037 2.994-.38 4.365-1.009 1.372-.628 2.602-1.529 3.615-2.647-.915.197-1.849.295-2.785.292-3.519-.01-6.89-1.418-9.372-3.912-2.483-2.494-3.874-5.872-3.868-9.391.002-.915.1-1.827.292-2.722z"/>
</svg>
