<svg xmlns="http://www.w3.org/2000/svg" width="90" height="90" fill="none" viewBox="0 0 90 90">
    <g clip-path="url(#prefix__clip0)">
        <path fill="#fff" d="M84 46c0-1.606-.892-3.05-2.33-3.77l-5.658-2.83 5.658-2.829c1.438-.72 2.33-2.164 2.33-3.77 0-1.606-.892-3.05-2.33-3.77L49.725 13.058c-2.332-1.165-5.116-1.165-7.45 0L10.33 29.032C8.893 29.75 8 31.195 8 32.802c0 1.605.892 3.05 2.33 3.77l5.658 2.828-5.66 2.83C8.893 42.95 8 44.394 8 46c0 1.606.892 3.05 2.33 3.77l5.658 2.829-5.658 2.829C8.894 56.146 8 57.59 8 59.196c0 1.607.892 3.052 2.33 3.772l31.946 15.973c1.166.583 2.444.874 3.724.874 1.28 0 2.559-.292 3.725-.874L81.67 62.968c1.437-.72 2.33-2.165 2.329-3.772 0-1.606-.894-3.05-2.33-3.767l-5.658-2.83 5.659-2.83C83.107 49.05 84 47.607 84 46zM11.893 33.446c-.347-.173-.4-.478-.4-.645 0-.166.053-.471.4-.644l31.944-15.973c.677-.338 1.42-.507 2.163-.507.743 0 1.486.169 2.163.507l31.944 15.972c.347.174.4.479.4.645 0 .166-.053.471-.4.645L48.163 49.418c-1.354.677-2.972.677-4.325 0L11.893 33.447zm68.215 25.108c.346.172.398.477.398.643 0 .167-.052.473-.398.646L48.163 75.815c-1.355.677-2.972.677-4.325 0L11.892 59.843c-.347-.174-.4-.48-.4-.646 0-.166.053-.47.4-.644l8.002-4 22.38 11.19c1.167.582 2.445.873 3.725.873 1.279 0 2.558-.291 3.725-.874l22.38-11.19 8.003 4.002zm0-11.91L48.163 62.617c-1.355.677-2.972.677-4.325 0L11.892 46.645c-.347-.174-.4-.479-.4-.645 0-.167.053-.471.4-.645l8.002-4.001 22.38 11.19c1.166.583 2.446.874 3.725.874s2.558-.291 3.724-.874l22.381-11.19 8.002 4c.347.174.399.48.399.646 0 .166-.052.471-.398.645z"/>
    </g>
    <defs>
        <clipPath id="prefix__clip0">
            <path fill="#fff" d="M8 8H84V84H8z"/>
        </clipPath>
    </defs>
</svg>
