<svg xmlns="http://www.w3.org/2000/svg" width="90" height="90" fill="none" viewBox="0 0 90 90">
    <g clip-path="url(#prefix__clip0)">
        <path fill="#fff" fill-rule="evenodd" d="M68.304 5.558c.51.028.983.335 1.283.836.381.425.566 1.05.493 1.67l-1.283 20.169c-.101 1.224-.956 2.154-1.973 2.148h-.099c-1.066-.123-1.88-1.21-1.874-2.506l.987-14.824-25.26 23.774c-.722.698-1.747.698-2.468 0L20.449 19.998 3.378 39.81c-.364.45-.86.707-1.381.716-.577.029-1.128-.283-1.48-.835-.726-.96-.682-2.447.098-3.342l18.353-21.242c.714-.8 1.803-.85 2.566-.12l17.86 16.947L62.76 9.824 50.05 8.78c-1.09-.098-1.908-1.247-1.826-2.565.082-1.318 1.032-2.307 2.122-2.208l17.958 1.551zM54.293 35.274h13.123c1.09 0 1.974 1.069 1.974 2.387v49.646c0 1.318-.884 2.386-1.974 2.386H54.293c-1.09 0-1.974-1.068-1.974-2.386V37.66c0-1.319.884-2.387 1.974-2.387zm1.973 49.646h9.177V40.048h-9.177V84.92zM28.539 54.01h13.025c1.09 0 1.973 1.07 1.973 2.388v30.909c0 1.318-.883 2.387-1.973 2.387H28.539c-1.09 0-1.973-1.069-1.973-2.387v-30.91c0-1.318.883-2.386 1.973-2.386zm1.974 30.91h9.077V58.784h-9.077V84.92zM15.81 65.587H2.687c-1.09 0-1.973 1.068-1.973 2.386v19.334c0 1.318.883 2.387 1.973 2.387h13.124c1.09 0 1.973-1.069 1.973-2.387V67.973c0-1.318-.883-2.386-1.973-2.386zM13.837 84.92H4.661V70.36h9.176v14.56z" clip-rule="evenodd"/>
    </g>
    <defs>
        <clipPath id="prefix__clip0">
            <path fill="#fff" d="M0 0H90V90H0z"/>
        </clipPath>
    </defs>
</svg>
