<svg xmlns="http://www.w3.org/2000/svg" width="102" height="96" fill="none" viewBox="0 0 102 96">
    <path fill="#fff" d="M69.553 39.21H32.288l-1.044-1.044v-5.2l1.044-1.044h37.265l1.045 1.044v5.2l-1.045 1.045zm-36.2-2.088H68.51V34.01H33.333l.02 3.112z"/>
    <path fill="#fff" d="M64.352 33.724H37.487l-1.002-.765-5.208-18.636L32.287 13h7.449l.981.696 1.483 4.08h2.52l1.49-4.08.981-.696h7.456l.982.696 1.455 4.073h2.52l1.51-4.073.982-.696h7.456l1.002 1.323-5.193 18.636-1.01.765zm-26.064-2.088h25.27l4.622-16.547h-5.346l-1.49 4.079-.981.696h-3.975l-.982-.696-1.49-4.08h-5.994l-1.482 4.08-.982.696h-3.989l-.982-.696-1.503-4.08h-5.326l4.63 16.548zM78.22 79.949h-54.6l-1.044-1.044v-5.2l1.044-1.045h54.607l1.044 1.044v5.2L78.22 79.95zM24.658 77.86h52.517V74.75h-52.51l-.007 3.111z"/>
    <path fill="#fff" d="M75.623 90.496H26.197l-1.045-1.044v-10.4l1.045-1.045h49.426l1.045 1.044v10.4l-1.045 1.045zM27.27 88.407h47.338v-8.312H27.269v8.312zM73.791 74.457H28.026l-1.016-1.295 8.667-35.246 1.016-.794h28.452l.989.794L74.8 73.162l-1.01 1.295zm-44.456-2.089h43.161l-8.165-33.157H37.508l-8.173 33.157zM25.96 61.82H10.443l-1.045-1.043v-5.2l1.045-1.045H25.96l1.044 1.045v5.2L25.96 61.82zm-14.452-2.087h13.408V56.62H11.5l.007 3.111z"/>
    <path fill="#fff" d="M18.203 56.405c-1.834 0-3.628-.544-5.153-1.563-1.526-1.019-2.716-2.467-3.418-4.162-.703-1.695-.888-3.56-.53-5.36.356-1.8 1.239-3.453 2.535-4.751 1.296-1.299 2.948-2.184 4.748-2.543 1.799-.36 3.664-.178 5.36.522 1.696.7 3.146 1.888 4.168 3.412 1.02 1.524 1.567 3.317 1.57 5.151.001 1.22-.238 2.428-.704 3.555-.466 1.127-1.15 2.151-2.01 3.014-.862.863-1.886 1.548-3.012 2.016-1.127.467-2.334.708-3.554.71zm0-16.47c-1.422 0-2.813.421-3.996 1.212-1.183.79-2.105 1.915-2.649 3.23-.543 1.314-.685 2.761-.406 4.156.278 1.396.964 2.677 1.972 3.682 1.007 1.005 2.29 1.69 3.685 1.965 1.396.276 2.842.132 4.156-.415 1.314-.546 2.436-1.47 3.225-2.654.788-1.185 1.207-2.577 1.205-4-.006-1.904-.766-3.728-2.113-5.073-1.348-1.346-3.174-2.102-5.079-2.104zM28.438 74.602H5.694l-.919-1.538 6.934-12.789.919-.543h11.16l.918.543 4.97 9.155-1.837.995-4.678-8.604h-9.913l-5.8 10.693h20.99v2.088z"/>
    <path fill="#fff" d="M23.523 77.207H4.066L3.02 76.163v-2.604l1.045-1.044h1.629v2.088H5.11v.515h18.413v2.089z"/>
    <path fill="#fff" d="M25.91 83.27H5.696L4.65 82.226v-6.064H6.74v5.02H25.91v2.088zM91.383 61.82H75.88l-1.044-1.043v-5.2l1.044-1.045h15.496l1.045 1.045v5.2l-1.038 1.044zm-14.452-2.087H90.34V56.62H76.924l.007 3.111z"/>
    <path fill="#fff" d="M83.636 56.405c-1.835.002-3.629-.541-5.156-1.56-1.526-1.018-2.717-2.466-3.42-4.16-.704-1.695-.89-3.56-.534-5.36.356-1.8 1.238-3.455 2.534-4.754 1.296-1.299 2.948-2.185 4.748-2.545 1.8-.36 3.665-.179 5.361.521 1.697.7 3.147 1.888 4.169 3.412 1.022 1.524 1.568 3.317 1.571 5.152.002 2.462-.974 4.824-2.713 6.567-1.738 1.742-4.098 2.723-6.56 2.727zm0-16.47c-1.423-.002-2.814.419-3.998 1.209-1.184.79-2.107 1.913-2.652 3.228-.545 1.315-.687 2.761-.41 4.157.278 1.396.964 2.678 1.97 3.684 1.008 1.006 2.29 1.69 3.686 1.967 1.396.276 2.843.132 4.157-.414 1.315-.546 2.437-1.47 3.226-2.655.789-1.184 1.208-2.576 1.206-4-.006-1.903-.765-3.726-2.111-5.071-1.346-1.345-3.17-2.102-5.074-2.106zM96.145 74.602H73.4v-2.088h20.99l-5.8-10.693h-9.92L74 70.425l-1.838-.995 4.97-9.155.92-.543H89.21l.919.543 6.934 12.789-.92 1.538z"/>
    <path fill="#fff" d="M97.767 77.207h-19.45v-2.089h18.406v-.515h-.578v-2.088h1.622l1.044 1.044v2.603l-1.044 1.045z"/>
    <path fill="#fff" d="M96.146 83.27H75.93V81.18h19.172v-5.019h2.088v6.064l-1.044 1.044zM20.947 85.519H0v2.088h20.947v-2.088zM101.84 85.519H80.893v2.088h20.947v-2.088z"/>
</svg>
