<svg width="105" height="44" viewBox="0 0 105 44" fill="none" xmlns="http://www.w3.org/2000/svg">
	<path d="M69.2209 2.64062L71.0032 4.48899V18.8138L69.2209 20.5962L65.3921 16.7674V6.5354L69.2209 2.64062Z" fill="#EE0E33"/>
	<path d="M69.2209 22.5767L71.0032 24.425V38.7499L69.2209 40.5322L65.3921 36.7035V26.4714L69.2209 22.5767Z" fill="#EE0E33"/>
	<path d="M47.8326 2.64062L46.0503 4.48899V18.8138L47.8326 20.5962L51.7274 16.7674V6.5354L47.8326 2.64062Z" fill="#EE0E33"/>
	<path d="M47.8326 22.5764L46.0503 24.4248V38.7496L47.8326 40.532L51.6614 36.7032L51.7274 26.4712L47.8326 22.5764Z" fill="#EE0E33"/>
	<path d="M68.4289 1.78235L66.6466 0H50.4734L48.625 1.78235L52.4538 5.67712H64.6002L68.4289 1.78235Z" fill="#EE0E33"/>
	<path d="M68.4289 41.3903L66.6466 43.1726H50.4734L48.625 41.3903L52.4538 37.5615H64.6002L68.4289 41.3903Z" fill="#EE0E33"/>
	<path d="M103.217 0L105 1.84837V18.8137L103.217 20.5961L99.3887 16.7673V3.89477L103.217 0Z" fill="#EE0E33"/>
	<path d="M103.217 22.5764L105 24.4248V38.7496L103.217 40.532L99.3887 36.7032V26.4712L103.217 22.5764Z" fill="#EE0E33"/>
	<path d="M78.4625 0L76.6802 1.84837V18.8137L78.4625 20.5961L82.2913 16.7673V3.89477L78.4625 0Z" fill="#EE0E33"/>
	<path d="M90.0812 22.5764L88.2988 24.4248V33.7986L90.0812 35.581L93.9099 31.7522V26.4712L90.0812 22.5764Z" fill="#EE0E33"/>
	<path d="M78.3966 22.5764L76.6143 24.4248V38.7496L78.3966 40.532L82.2914 36.7032V26.4712L78.3966 22.5764Z" fill="#EE0E33"/>
	<path d="M102.492 41.3903L100.643 43.1726H81.0373L79.189 41.3903L83.0837 37.5615H98.5968L102.492 41.3903Z" fill="#EE0E33"/>
	<path d="M28.2174 0L29.9998 1.84837V18.8137L28.2174 20.5961L24.3887 16.7673V3.89477L28.2174 0Z" fill="#EE0E33"/>
	<path d="M28.2174 22.5764L29.9998 24.4248V38.7496L28.2174 40.532L24.3887 36.7032V26.4712L28.2174 22.5764Z" fill="#EE0E33"/>
	<path d="M3.46253 0L1.68018 1.84837V18.8137L3.46253 20.5961L7.29129 16.7673V3.89477L3.46253 0Z" fill="#EE0E33"/>
	<path d="M15.0812 22.5764L13.2988 24.4248V33.7986L15.0812 35.581L18.9099 31.7522V26.4712L15.0812 22.5764Z" fill="#EE0E33"/>
	<path d="M3.39661 22.5764L1.61426 24.4248V38.7496L3.39661 40.532L7.29138 36.7032V26.4712L3.39661 22.5764Z" fill="#EE0E33"/>
	<path d="M27.4916 41.3903L25.6432 43.1726H6.03733L4.18896 41.3903L8.08374 37.5615H23.5968L27.4916 41.3903Z" fill="#EE0E33"/>
</svg>
