<svg xmlns="http://www.w3.org/2000/svg" width="20" height="20" fill="none" viewBox="0 0 20 20">
    <path fill="#fff" d="M5.306 10.12H7.39v8.574c0 .169.137.306.307.306h3.53c.17 0 .307-.137.307-.306V10.16h2.395c.155 0 .286-.117.304-.272l.364-3.156c.01-.087-.018-.174-.076-.24-.058-.064-.141-.102-.229-.102h-2.758V4.412c0-.597.322-.9.955-.9h1.803c.17 0 .307-.137.307-.306V.31c0-.17-.137-.307-.307-.307h-2.485C11.79.002 11.75 0 11.693 0c-.432 0-1.93.085-3.114 1.174-1.312 1.207-1.13 2.652-1.086 2.902V6.39H5.306c-.169 0-.306.137-.306.307v3.116c0 .17.137.306.306.306z"/>
</svg>
