<svg xmlns="http://www.w3.org/2000/svg" width="20" height="20" fill="none" viewBox="0 0 20 20">
    <path fill="#fff" d="M4.848 4h10.7c1.016 0 1.847.752 1.847 1.848v10.7c0 1.095-.831 1.847-1.848 1.847h-10.7C3.832 18.395 3 17.643 3 16.547v-10.7C3 4.753 3.831 4 4.848 4zm8.638 1.6c-.356 0-.648.29-.648.647V7.8c0 .356.292.648.648.648h1.627c.357 0 .648-.292.648-.648V6.247c0-.356-.291-.648-.648-.648h-1.627zm2.282 4.488h-1.267c.12.391.185.806.185 1.235 0 2.394-2.004 4.335-4.475 4.335-2.47 0-4.474-1.941-4.474-4.335 0-.43.065-.844.185-1.235H4.6v6.08c0 .315.257.573.572.573h10.024c.315 0 .572-.258.572-.573v-6.08zm-5.557-1.723c-1.597 0-2.891 1.254-2.891 2.801 0 1.547 1.294 2.801 2.891 2.801s2.891-1.254 2.891-2.8c0-1.548-1.294-2.802-2.891-2.802z"/>
</svg>
