<svg xmlns="http://www.w3.org/2000/svg" width="20" height="20" fill="none" viewBox="0 0 20 20">
    <path fill="#fff" d="M14.905 0h-3.718v12.807h3.718V0z"/>
    <path fill="#fff" d="M11.187 7.289v5.518c0 1.234-1 2.235-2.235 2.235-1.235 0-2.235-1-2.235-2.235 0-1.235 1-2.235 2.235-2.235.593 0 1.134.232 1.534.61V7.054c-.49-.13-1.004-.2-1.534-.2C5.665 6.855 3 9.52 3 12.808c0 3.287 2.665 5.952 5.952 5.952s5.952-2.665 5.952-5.952c0-2.497-1.536-4.635-3.717-5.518zM17.14 3.255c-1.235 0-2.235-1-2.235-2.235h-3.718c0 3.287 2.664 5.952 5.952 5.952h.949l.028-3.718h-.976z"/>
</svg>
